<svg width="683" height="683" viewBox="0 0 683 683" fill="none" xmlns="http://www.w3.org/2000/svg">
<path d="M329.067 16.9334C316 26.6668 284.4 59.2001 274.4 73.3334C244 116.267 227.867 170 229.6 222L230.133 238.8L213.333 250.933C172 281.2 172.4 280.8 168.133 289.6L164 297.733V333.333V368.8L167.867 374.933C174.267 385.067 188 389.467 199.067 384.933C201.467 383.867 214.533 376.133 228.4 367.6C242.133 358.933 253.6 352 253.867 352C254.133 352 255.067 354.8 255.867 358.4C258.267 368.4 260 371.6 263.467 373.2C265.467 374.133 275.067 374.667 288 374.667H309.333V385.867C309.333 395.467 309.867 398 313.067 404.133C318.4 414.267 326.4 419.2 339.2 419.733C347.467 420.133 349.6 419.733 356 416.4C360.8 414 364.667 410.667 367.333 406.933C371.067 401.6 371.333 400 371.733 388L372.267 374.8L395.6 374.4C423.067 373.867 422.267 374.4 425.867 357.467C427.467 350 428.667 346.933 429.733 347.6C430.667 348.133 442.267 356 455.6 364.933C468.933 374 482 382.267 484.533 383.333C490.533 385.867 497.467 385.867 503.6 383.333C510 380.667 513.067 377.867 516.133 371.733C518.4 367.2 518.667 363.467 518.667 332.133V297.6L514.267 289.067C510.133 280.933 509.2 280.133 480.8 259.867L451.733 239.2L451.867 216.533C452.133 191.2 450 172.4 444.533 151.467C432.8 106.8 411.2 70.5334 376.267 37.0668C357.6 19.3334 346.267 10.6668 341.333 10.6668C338.933 10.6668 334.533 12.9334 329.067 16.9334ZM360.533 50.8001C398.267 86.9334 419.6 126 428.933 176.667C432 193.6 432 232.267 428.933 249.333C427.6 256.267 421.867 282.4 416.133 307.333L405.733 352.667L388.933 353.067L372 353.467V348.4C371.867 338.4 364.133 327.067 354.667 322.933C347.733 320 332.4 320.4 325.867 323.733C316 328.8 309.333 338.8 309.333 348.667V353.333H292.667C276.533 353.333 276 353.2 275.333 350.267C271.333 333.2 256.667 268.533 254.667 259.067C241.467 196 257.067 129.6 297.067 78.0001C307.467 64.4001 337.867 34.6668 341.333 34.6668C342.533 34.6668 351.2 42.0001 360.533 50.8001ZM241.333 294.267C245.2 311.733 248.667 326.933 248.933 328.133C249.333 329.6 241.333 335.2 220.4 348C204.4 357.733 190.933 366 190.4 366.267C189.867 366.533 188.133 366.133 186.667 365.333C184.133 364 184 362.667 184 333.6C184 307.2 184.267 302.667 186.4 298.933C187.867 296.267 196.533 288.933 210.667 278.667C222.667 269.867 232.933 262.667 233.333 262.667C233.733 262.667 237.333 276.933 241.333 294.267ZM471.6 278.667C486.267 289.2 494.8 296.133 496.4 298.933C498.4 302.667 498.667 307.2 498.667 332.933C498.667 361.2 498.533 362.667 496 364C493.733 365.2 489.067 362.533 463.2 345.2C436 327.067 433.2 324.8 433.867 322C434.267 320.267 437.333 306.933 440.667 292.4C447.2 264 447.6 262.667 448.533 262.667C448.933 262.667 459.333 269.867 471.6 278.667ZM348.8 343.2C351.067 344.933 351.333 347.2 351.733 368.667C352.267 397.867 351.867 399.067 340.267 398.4C329.6 397.867 329.2 396.8 329.6 369.2C330 349.467 330.267 346.667 332.533 344.133C335.6 340.8 344.667 340.267 348.8 343.2Z" fill="black"/>
<path d="M328 116.667C313.2 120.8 299.867 132.667 294.4 146.533C292.133 152.267 291.467 156.8 291.333 166C291.333 176.933 291.733 178.8 295.6 186.8C300.8 197.467 310.4 206.8 321.067 211.733C327.6 214.8 330.4 215.333 341.333 215.333C352.933 215.333 354.8 214.933 362.8 211.067C373.467 205.733 382.8 196.267 387.733 185.6C392.533 175.2 392.8 157.867 388.133 146.133C383.733 135.2 371.2 122.8 360.533 118.667C350.267 114.933 337.467 114.133 328 116.667ZM353.067 138.133C364.133 142.667 370.533 152.8 370.667 165.733C370.8 192.4 338 205.333 319.867 185.733C314.133 179.6 312 174.133 312 165.333C312 152.933 318.4 142.933 329.333 138.133C335.467 135.467 346.8 135.467 353.067 138.133Z" fill="black"/>
<path d="M111.067 35.3335C109.6 36.4001 102.667 47.4668 95.8667 59.8668L83.3333 82.4001L60.6667 94.6668C48.2667 101.333 36.9333 108.133 35.6 109.6C32.6667 113.067 32.6667 119.333 35.7333 122.4C37.0667 123.733 48.4 130.267 60.8 137.067L83.3333 149.2L96 172.8C106.267 191.867 109.467 196.667 112.8 198.267C120.667 202.133 123.067 199.467 137.333 173.2L150 149.733L170 138.667C199.6 122.267 202 120 198.667 112.133C197.467 109.2 191.867 105.467 173.6 95.2001L150.133 82.0001L138 60.4001C131.467 48.5335 124.8 37.6001 123.467 36.1335C120.533 32.8001 115.067 32.5335 111.067 35.3335ZM126.667 82.4001L134.933 97.3335L150.8 106.267C159.6 111.2 166.667 115.6 166.667 116C166.667 116.4 159.6 120.533 150.933 125.333L135.333 134.133L126.667 149.6C121.867 158.133 117.6 165.467 117.2 166C116.667 166.4 112.533 159.867 108.133 151.467C103.6 143.067 98.5333 135.067 96.8 133.733C95.2 132.4 87.7333 128 80.2667 124C72.8 120.133 66.6667 116.4 66.6667 115.867C66.6667 115.333 73.6 111.2 82 106.667C98.6667 97.7335 98.8 97.6001 109.333 78.2668C113.333 71.2001 116.933 65.7335 117.467 66.2668C118 66.9335 122.133 74.1335 126.667 82.4001Z" fill="black"/>
<path d="M559.067 36.2667C557.467 38 550.933 48.8 544.533 60.4C531.467 84.1334 534.4 81.4667 504.4 98C483.867 109.333 480.667 112.667 483.733 119.333C485.467 123.067 488.933 125.333 512.933 138.533C522.533 143.867 531.2 149.067 532.267 150.267C533.2 151.467 539.333 162.267 546 174.533C559.467 199.333 562.133 202 569.867 198.267C573.2 196.667 576.4 191.867 586.667 172.8L599.333 149.2L621.867 137.067C634.267 130.267 645.6 123.733 646.933 122.4C650.267 119.067 650 112.533 646.267 108.933C644.667 107.333 633.333 100.667 621.2 94.1334L599.2 82.2667L586.8 59.7334C579.867 47.3334 573.067 36.4 571.6 35.3334C567.467 32.4 562.267 32.9334 559.067 36.2667ZM574.667 80.6667C583.6 97.3334 584.267 98 600.667 106.667C609.067 111.2 616 115.333 616 115.733C616 116.267 609.2 120.4 600.933 124.933C592.667 129.467 584.933 134.267 583.733 135.6C582.667 136.933 578.267 144.533 574 152.4C569.867 160.4 566 166.4 565.467 166C565.067 165.467 560.8 158.133 556 149.6L547.333 134L531.733 125.333C523.067 120.533 516 116.267 516 115.867C516 115.467 522.933 111.333 531.467 106.533C540 101.867 547.733 96.8 548.667 95.3334C549.6 93.8667 553.733 86.5334 558 78.9334C566.667 63.2 565.067 63.0667 574.667 80.6667Z" fill="black"/>
<path d="M279.333 391.333C276.133 394.4 276 395.2 276 412.667C276 430.133 276.133 430.933 279.333 434C281.067 435.867 284 437.333 285.867 437.333C295.2 437.333 297.333 432.8 297.333 412.667C297.333 392.533 295.2 388 285.867 388C284 388 281.067 389.467 279.333 391.333Z" fill="black"/>
<path d="M390.933 388.933C386.933 390.533 385.333 397.067 385.333 412.667C385.333 432.8 387.467 437.333 396.8 437.333C398.667 437.333 401.6 435.867 403.333 434C406.533 430.933 406.667 430.133 406.667 412.667C406.667 395.2 406.533 394.4 403.333 391.333C400.267 388.133 395.2 387.2 390.933 388.933Z" fill="black"/>
<path d="M186 454.667C125.867 455.067 76 455.733 75.2 456.267C73.0667 457.733 32 548.533 32 551.733C32 553.2 33.2 555.733 34.5333 557.467C36.9333 560.4 38.2667 560.667 54.2667 561.333L71.3333 562L72 615.067C72.6667 665.733 72.8 668.267 75.2 670.133C79.2 672.933 603.467 672.933 607.467 670.133C609.867 668.267 610 665.733 610.667 615.067L611.333 562L628.4 561.333C644.4 560.667 645.733 560.4 648.133 557.467C649.467 555.733 650.667 553.2 650.667 551.733C650.667 548.4 609.867 460.133 606.933 457.067C604.8 454.933 594.267 454.667 450 454.4C364.933 454.133 246.133 454.267 186 454.667ZM278.133 487.6C274.933 494.8 268.133 509.6 263.067 520.667L253.867 540.667L156.133 541.067C78.1333 541.333 58.5333 541.067 59.0667 539.733C59.4667 538.8 66.1333 523.733 74 506.267L88.4 474.667H186.133H283.867L278.133 487.6ZM608.8 508L624 540.667L617.333 541.067C612.933 541.333 609.6 540.8 607.733 539.467C604 536.8 596.8 536.667 594.667 539.333C593.2 541.067 577.6 541.333 469.467 541.333H346L334.133 514.933C327.6 500.533 320.933 485.467 319.2 481.6L316 474.667L454.8 474.933L593.6 475.333L608.8 508ZM289.333 583.333V652H190.667H92V606.667V561.333H178.4H264.933L267.6 558.267C269.067 556.667 274.4 546.133 279.467 534.933C284.4 523.867 288.667 514.667 288.933 514.667C289.2 514.667 289.333 545.6 289.333 583.333ZM320.667 535.333C325.6 546.267 330.8 556.667 332.4 558.267L335.067 561.333H462.933H590.667V606.667V652H450.667H310.667V583.067C310.667 545.2 310.933 514.533 311.2 514.8C311.467 515.067 315.733 524.267 320.667 535.333Z" fill="black"/>
</svg>
