<?xml version="1.0" standalone="no"?>
<!DOCTYPE svg PUBLIC "-//W3C//DTD SVG 20010904//EN"
 "http://www.w3.org/TR/2001/REC-SVG-20010904/DTD/svg10.dtd">
<svg version="1.0" xmlns="http://www.w3.org/2000/svg"
 width="512.000000pt" height="512.000000pt" viewBox="0 0 512.000000 512.000000"
 preserveAspectRatio="xMidYMid meet">

<g transform="translate(0.000000,512.000000) scale(0.100000,-0.100000)"
fill="#000000" stroke="none">
<path d="M2480 4920 l0 -120 80 0 80 0 0 120 0 120 -80 0 -80 0 0 -120z"/>
<path d="M1880 4835 l-54 -55 79 -80 c44 -44 84 -80 90 -80 13 0 105 92 105
106 0 9 -151 164 -161 164 -2 0 -29 -25 -59 -55z"/>
<path d="M3092 4807 l-82 -83 58 -57 58 -57 84 85 84 85 -54 55 c-30 30 -57
55 -60 55 -3 0 -42 -37 -88 -83z"/>
<path d="M2220 4546 c-99 -26 -180 -103 -207 -195 -58 -202 89 -444 414 -678
131 -94 135 -94 266 0 328 236 475 480 412 681 -60 190 -301 264 -489 151
l-56 -34 -56 34 c-87 53 -188 67 -284 41z m168 -161 c20 -9 60 -40 88 -70 42
-45 57 -55 84 -55 27 0 42 10 84 55 75 80 152 104 229 71 106 -45 113 -165 17
-305 -45 -67 -192 -210 -273 -265 l-57 -39 -57 39 c-81 55 -228 198 -273 265
-49 71 -74 147 -67 200 13 94 123 145 225 104z"/>
<path d="M1600 4240 l0 -80 120 0 120 0 0 80 0 80 -120 0 -120 0 0 -80z"/>
<path d="M3280 4240 l0 -80 120 0 120 0 0 80 0 80 -120 0 -120 0 0 -80z"/>
<path d="M582 3665 c-286 -62 -502 -331 -502 -625 0 -273 189 -529 450 -611
223 -70 469 -8 641 161 251 249 251 649 0 901 -156 155 -376 220 -589 174z
m253 -160 c256 -67 415 -329 350 -580 -20 -75 -67 -164 -111 -206 l-34 -33 0
73 c0 98 -15 143 -66 200 l-43 48 14 39 c30 84 13 162 -52 234 -95 106 -236
108 -338 5 -72 -71 -92 -150 -60 -239 l14 -39 -43 -48 c-51 -57 -66 -102 -66
-200 l0 -73 -34 33 c-44 42 -91 131 -111 206 -89 343 237 669 580 580z m-60
-330 c50 -49 15 -135 -55 -135 -41 0 -80 39 -80 80 0 41 39 80 80 80 19 0 40
-9 55 -25z m80 -320 c24 -23 25 -30 25 -145 l0 -120 -27 -12 c-16 -7 -75 -12
-133 -12 -58 0 -117 5 -132 12 l-28 12 0 120 c0 115 1 122 25 145 23 24 31 25
135 25 104 0 112 -1 135 -25z"/>
<path d="M4735 3575 c-381 -89 -603 -272 -661 -545 -42 -199 36 -605 121 -626
64 -16 312 50 460 122 304 147 431 409 370 760 -26 150 -69 275 -103 300 -24
19 -72 16 -187 -11z m-127 -301 c-115 -164 -195 -290 -264 -414 -32 -58 -68
-122 -80 -143 l-22 -39 -11 64 c-24 140 -10 271 40 368 47 91 122 161 233 217
53 27 179 74 184 68 2 -1 -34 -56 -80 -121z m261 -31 c22 -145 6 -269 -46
-365 -35 -63 -132 -154 -208 -195 -70 -36 -213 -88 -221 -80 -7 7 64 140 159
297 98 161 289 432 298 423 4 -4 12 -40 18 -80z"/>
<path d="M2530 3423 c-8 -3 -101 -91 -207 -196 l-192 -191 -59 -7 c-71 -8
-105 -30 -132 -85 -19 -38 -20 -60 -20 -340 l0 -300 -337 -74 c-274 -61 -342
-79 -360 -97 l-23 -22 0 -524 0 -525 -92 -52 c-333 -190 -643 -463 -876 -774
-29 -38 -52 -72 -52 -76 0 -6 115 -90 123 -90 2 0 36 42 75 93 38 50 81 103
95 115 l25 24 191 -97 c139 -72 196 -96 213 -92 13 4 86 53 163 109 77 57 154
113 171 125 l30 22 60 -79 c55 -74 86 -100 119 -100 7 0 68 36 134 80 l121 80
151 0 151 0 29 29 c16 16 29 38 29 48 0 10 -31 96 -69 191 l-69 173 108 54
c60 30 113 63 118 72 5 10 24 80 43 156 31 126 36 138 59 145 14 4 142 7 285
6 255 0 360 -9 525 -45 l54 -12 -145 -72 -145 -73 -92 -139 c-96 -144 -106
-174 -74 -211 19 -23 364 -316 399 -339 20 -13 45 -13 219 1 l198 16 152 -115
c84 -63 163 -117 176 -120 15 -4 151 37 381 114 l358 120 37 -41 c53 -58 170
-206 190 -240 9 -15 20 -28 25 -28 12 0 127 79 127 88 0 14 -147 202 -238 305
-162 183 -352 346 -568 486 -73 47 -146 94 -163 103 l-31 17 0 536 0 536 -22
22 c-19 18 -87 36 -360 97 l-338 74 0 300 c0 280 -1 302 -20 340 -27 55 -61
77 -132 85 l-59 7 -192 192 c-192 192 -221 213 -267 195z m135 -293 l100 -100
-205 0 -205 0 100 100 c55 55 102 100 105 100 3 0 50 -45 105 -100z m375
-1020 c0 -527 -3 -760 -11 -760 -5 0 -41 5 -80 11 l-69 12 0 168 c0 163 -1
169 -24 196 l-24 28 -272 0 -272 0 -24 -28 c-23 -27 -24 -33 -24 -198 l0 -169
-37 0 c-21 -1 -57 -5 -80 -9 l-43 -8 0 758 0 759 480 0 480 0 0 -760z m-1120
-377 l0 -408 -128 -34 c-114 -30 -295 -92 -394 -135 l-38 -16 0 438 0 438 273
61 c149 34 275 62 280 62 4 1 7 -182 7 -406z m1578 341 l262 -58 0 -447 0
-448 -105 44 c-109 46 -356 129 -419 140 l-36 7 0 415 c0 390 1 414 18 409 9
-2 135 -31 280 -62z m-778 -574 l0 -110 -160 0 -160 0 0 110 0 110 160 0 160
0 0 -110z m-689 -405 c-11 -42 -21 -78 -23 -80 -2 -1 -58 -30 -125 -64 -67
-33 -127 -69 -133 -80 -17 -33 -11 -61 49 -211 l59 -145 -107 -5 -106 -5 -93
-63 c-52 -35 -95 -62 -96 -60 -20 30 -114 147 -129 161 -39 35 -65 23 -257
-118 -101 -74 -188 -135 -193 -135 -5 0 -67 30 -138 67 l-128 68 52 53 c195
200 567 439 872 560 179 71 505 161 513 142 2 -5 -6 -43 -17 -85z m1542 -69
c243 -101 488 -247 682 -407 111 -91 160 -137 155 -142 -3 -2 -134 -47 -292
-100 l-287 -95 -152 114 c-175 131 -138 121 -394 100 l-159 -14 -111 93 c-60
51 -128 108 -149 127 l-39 34 54 81 54 81 210 104 210 105 65 -22 c36 -12 105
-39 153 -59z"/>
<path d="M2240 2640 l0 -80 320 0 320 0 0 80 0 80 -320 0 -320 0 0 -80z"/>
<path d="M2240 2320 l0 -80 320 0 320 0 0 80 0 80 -320 0 -320 0 0 -80z"/>
<path d="M2240 2000 l0 -80 320 0 320 0 0 80 0 80 -320 0 -320 0 0 -80z"/>
<path d="M1440 1840 l0 -80 200 0 200 0 0 80 0 80 -200 0 -200 0 0 -80z"/>
<path d="M1440 1520 l0 -80 200 0 200 0 0 80 0 80 -200 0 -200 0 0 -80z"/>
<path d="M3280 1840 l0 -80 200 0 200 0 0 80 0 80 -200 0 -200 0 0 -80z"/>
<path d="M3280 1520 l0 -80 200 0 200 0 0 80 0 80 -200 0 -200 0 0 -80z"/>
</g>
</svg>
