<svg width="683" height="683" viewBox="0 0 683 683" fill="none" xmlns="http://www.w3.org/2000/svg">
<g clip-path="url(#clip0_28_186)">
<path d="M540 2.93334C536.4 3.86667 520.4 19.0667 468 71.4667L400.667 138.667H245.067H89.4667L89.0667 87.2L88.6667 35.7333L85.4667 33.2C79.2 28.1333 60 30.8 42.8 39.0667C30.4 45.0667 15.3333 60.2667 8.93333 72.9333C-0.666667 92.4 -0.133334 76.9333 0.266666 323.333L0.666666 544.667L3.86667 554C10.1333 572.667 25.2 590.267 41.8667 598.533C59.0667 606.933 51.7333 606.667 224.667 606.667H382L352.4 636.267C319.6 669.067 318 671.467 324.4 677.867L327.867 681.333H502H676.133L679.333 678L682.667 674.8V501.333C682.667 392.8 682.133 326.933 681.333 325.467C680.667 324.133 678.4 322.267 676.133 321.467C670.533 319.067 667.2 321.333 650.667 337.867L636.667 352L636 248.667L635.333 145.467L632.267 142.4C629.333 139.333 628.8 139.333 589.067 138.933L548.8 138.533L578.4 108.933C597.467 89.7333 608.667 77.6 610 74.4C612.8 67.4667 612.533 56.6667 609.333 50C607.733 46.6667 598.4 36.4 586.267 24.4C570.267 8.66667 564.8 4.00001 560.667 2.80001C554.267 1.06667 546.4 1.06667 540 2.93334ZM573.6 39.7333C596.933 63.0667 596.8 62.2667 580.667 78.5333L569.333 90L546.4 66.9333L523.333 44L534.8 32.6667C551.067 16.5333 550.267 16.4 573.6 39.7333ZM69.3333 204.667C69.3333 355.6 69.3333 357.333 72 360C77.0667 365.067 85.3333 362.933 87.8667 355.867C88.9333 352.933 89.3333 322.267 89.3333 255.867V160H234.267H379.2L350.267 189.067C334.4 205.067 321.333 219.067 321.333 220.4C321.333 227.6 328.533 233.333 334.8 230.8C336.533 230.133 369.2 198.267 407.333 160.133L476.667 90.6667L499.6 113.6L522.667 136.667L419.067 240.267L315.333 344L292.4 321.067L269.333 298L290.667 276.667C313.867 253.2 315.2 251.067 308.667 244.667C302.133 238 300.4 239.067 272.267 267.067L246.4 292.933L229.467 340.8L212.533 388.667L193.467 389.333C175.467 390 174.267 390.133 171.867 393.2C168.533 397.333 168.667 402.4 172.267 406.267L175.067 409.333H317.6H460.133L463.333 406C467.333 402.133 467.6 397.467 464.133 393.2L461.6 390L360.533 389.333L259.6 388.667L289.467 378.267L319.333 367.733L423.333 263.867L527.333 160H571.733H616V266.267V372.667L542.667 446C479.333 509.333 469.333 519.867 469.333 523.333C469.333 528.533 474 533.333 479.2 533.333C482.933 533.333 493.2 523.467 572.933 443.733L662.667 354V398.267V442.4L651.467 442.8C638.4 443.467 634.667 445.6 634.667 452.933C634.667 460.667 638.133 462.667 651.333 462.667H662.667V478V493.333H651.733C638.933 493.333 634.667 495.867 634.667 503.467C634.667 510.667 639.467 513.333 652.133 513.333H662.667V528.667V544H651.333C638.133 544 634.667 546 634.667 553.733C634.667 561.067 638.4 563.2 651.467 563.867L662.667 564.267V578.667V593.067L651.467 593.467C638.4 594.133 634.667 596.267 634.667 603.6C634.667 611.333 638.133 613.333 651.333 613.333H662.667V637.333V661.333H509.067H355.333L407.733 608.933C437.467 579.2 460 555.6 460 554.267C460 551.333 457.6 546.4 455.467 545.067C454.667 544.533 452 544 449.467 544C445.333 544 442.8 546 423.333 565.333L401.867 586.667H235.867C57.2 586.667 62.8 586.933 49.0667 579.867C41.2 575.867 30.4 564.533 26.2667 556C16.5333 536.133 19.4667 514.533 34.1333 496.533C42.9333 485.6 62.1333 476 75.2 476C79.6 476 82.1333 475.2 84.9333 472.8L88.6667 469.6V429.467C88.6667 390 88.6667 389.333 85.7333 386.533C82.1333 382.933 75.7333 382.667 72 386C69.4667 388.267 69.3333 390 69.3333 422.133V455.867L63.7333 457.333C47.4667 461.6 38.1333 466.133 26.9333 475.6L20 481.6V293.733C20 163.867 20.4 103.333 21.4667 98C24.1333 83.6 33.3333 69.0667 44.9333 61.0667C51.8667 56.4 61.8667 52.1333 66.4 52H69.3333V204.667ZM532.667 81.3333L555.333 104L546 113.333L536.667 122.667L513.733 99.7333L490.667 76.6667L499.6 67.7333C504.533 62.6667 508.933 58.6667 509.333 58.6667C509.733 58.6667 520.267 68.8 532.667 81.3333ZM294.267 354.933C293.333 355.467 287.067 357.867 280.133 360.133L267.733 364.267L258.267 354.933L248.933 345.6L254 331.333L259.067 317.067L277.467 335.467C290 348 295.333 354.267 294.267 354.933Z" fill="white"/>
<path d="M538.4 538.4C484 592.8 481.333 595.6 481.333 600.267C481.333 604 482.133 605.867 484.8 607.867C488.267 610.667 489.733 610.667 544.8 610.667C584.933 610.667 602.133 610.267 604.667 609.067C606.8 608.133 608.533 605.867 609.467 602.8C610.267 599.733 610.667 578.4 610.4 542.267L610 486.4L606.8 483.867C605.067 482.533 601.867 481.333 599.6 481.333C595.867 481.333 589.2 487.6 538.4 538.4ZM590.667 553.333V590.667H553.067H515.333L552.667 553.333C573.2 532.8 590.133 516 590.267 516C590.533 516 590.667 532.8 590.667 553.333Z" fill="white"/>
</g>
<defs>
<clipPath id="clip0_28_186">
<rect width="682.667" height="682.667" fill="white"/>
</clipPath>
</defs>
</svg>
