<svg width="683" height="683" viewBox="0 0 683 683" fill="none" xmlns="http://www.w3.org/2000/svg">
<g clip-path="url(#clip0_28_169)">
<path d="M213.333 1.46666C156 8.13332 105.867 33.0667 65.8666 75.0667C-26.4 172.133 -20.2667 326.133 79.4666 416.4C88.1333 424.133 90.1333 425.333 94.6666 425.333C100.8 425.333 105.333 420.667 105.333 414.133C105.333 410.667 102.8 407.6 88.9333 393.867C70.5333 375.6 58.1333 359.2 47.4666 338.667C-16.4 216.133 48.2666 67.2 181.333 30C202.667 24.1333 219.6 22.2667 246 23.0667C281.733 24.1333 305.733 30.1333 336.533 45.8667C387.733 72 426.4 116.8 444 170.533C452.267 195.867 453.867 207.067 453.867 238.667C453.867 269.333 452.267 280.133 444.8 303.867C423.867 369.467 372.133 422 307.067 443.867C286.133 450.8 270.8 453.467 246.133 454.267C225.467 454.933 223.467 455.333 220.267 458C215.2 462.4 215.467 469.867 220.667 474.4L224.533 477.733L248.667 476.933C275.067 476 291.333 473.2 314.667 465.467C329.6 460.4 351.733 450.133 363.733 442.533L372.267 437.067L407.2 471.867C440.933 505.333 442.4 506.667 447.333 506.667C452.267 506.667 453.733 505.467 478.533 480.8C492.933 466.667 506 454.267 507.733 453.467C510 452.267 512 452.267 515.067 453.2C518 454.267 540.933 476.267 588.133 523.6C626.133 561.6 657.733 594 658.667 595.733C659.467 597.467 659.867 600.4 659.333 602.533C658.267 607.333 607.467 658.133 602.4 659.333C600.533 659.867 597.467 659.467 595.733 658.667C594.133 657.733 571.6 636.133 546 610.533C503.733 568.4 498.8 564 494.933 564C488.667 564 484 569.067 484 575.6C484 580.533 485.733 582.4 532.933 629.467C578.533 674.8 582.533 678.533 589.2 680.667C597.467 683.333 607.867 682.8 614.8 679.333C621.067 676.267 675.6 621.867 678.933 615.467C682.8 608 683.467 597.867 680.667 589.2C678.533 582.4 674.133 577.733 606.267 509.733C557.067 460.4 532.267 436.4 527.867 434.133C521.067 430.267 511.467 429.2 502 431.067L496.667 432.133L466.933 402.267L437.067 372.4L442.533 363.6C465.6 325.867 477.333 284 477.333 239.467C477.333 201.067 469.6 167.6 453.067 133.6C434 94.5333 405.067 62.1333 367.333 37.7333C323.2 9.19999 265.2 -4.40001 213.333 1.46666ZM451.6 418.933C466.533 433.867 478.667 446.533 478.667 447.333C478.667 449.067 449.067 478.667 447.333 478.667C445.867 478.667 392 425.2 392 423.867C392 422.533 421.867 392.4 423.333 392.133C424 392.133 436.8 404.133 451.6 418.933Z" fill="white"/>
<path d="M224 46.1334C222.133 46.4001 215.6 47.3334 209.333 48.1334C194.8 50.1334 175.067 56.0001 159.6 62.9334C101.467 89.0667 59.7333 142.8 48.5333 206C45.4666 223.333 45.4666 254.667 48.3999 271.333C55.4666 310 73.0666 344.533 99.8666 372.133C111.467 384.133 113.067 385.333 117.6 385.333C121.333 385.333 123.2 384.4 126 381.067C131.333 374.667 130 371.067 116.667 357.067C85.0666 324 68.9333 284 68.9333 239.333C69.0666 219.333 71.4666 203.067 77.3333 185.333C93.3333 136.267 132.8 96.0001 182.4 78.1334C200.267 71.7334 217.467 68.9334 238.667 68.9334C266.8 68.9334 287.333 73.4667 313.2 85.4667C327.067 91.8667 330.667 92.0001 335.333 86.4001C338.133 83.0667 338.667 81.3334 338.133 78.2667C336.933 72.2667 335.067 70.6667 322 64.5334C297.067 52.8001 272.533 46.9334 244.8 46.0001C235.2 45.7334 225.867 45.7334 224 46.1334Z" fill="white"/>
<path d="M496 69.7334C488.8 73.3334 487.6 82.2667 493.333 88.0001C495.867 90.5334 498 90.6667 551.733 90.6667C612.267 90.5334 610.667 90.8001 613.467 82.9334C615.333 77.4667 612.267 71.4667 606.533 69.4667C600.133 67.3334 500.4 67.4667 496 69.7334Z" fill="white"/>
<path d="M229.333 92C202.933 95.6 181.733 114.133 173.6 140.533C170.933 149.467 170.933 169.2 173.6 178.133C176.267 186.8 180.667 195.333 185.467 201.467C187.6 204.133 189.333 206.667 189.333 207.067C189.333 207.467 187.733 208.133 185.733 208.667C170.4 212.533 153.333 232.133 149.467 250.4C147.467 260 147.467 302 149.6 305.733C153.067 312.4 161.2 314.133 166.4 309.333C170.4 305.6 170.533 304.133 170.933 276.667C171.333 250.133 172.4 246.533 181.467 237.467C190.267 228.667 189.733 228.667 236.667 228.267C273.867 227.867 280 228.133 285.067 230.133C293.2 233.2 299.867 239.467 303.467 247.333C306.533 253.867 306.667 254.8 306.667 297.6V341.333H265.467H224.133L220.533 344.533C215.333 348.933 215.333 356.4 220.533 360.8L224.133 364H273.467H322.8L326 360.8C327.733 359.067 329.6 355.6 330 352.933C330.533 350.4 330.667 326.8 330.4 300.533C329.867 254.8 329.733 252.267 326.8 244.133C321.333 228.533 310.133 216.133 296.4 210.4C292.533 208.8 289.333 206.933 289.333 206.267C289.333 205.6 290.8 203.2 292.8 201.067C301.467 190.667 306.667 174.933 306.667 158.933C306.667 117.6 270.533 86.2667 229.333 92ZM248.533 115.333C262 117.6 276 129.6 281.2 143.467C283.6 149.733 284.133 153.333 283.733 161.333C282.933 179.333 274 192.533 257.6 200.267C236.4 210.4 209.467 201.067 198.8 180.133C189.867 162.8 193.333 141.333 207.067 127.467C215.733 118.8 231.2 112.667 240.667 114.133C242.133 114.267 245.733 114.933 248.533 115.333Z" fill="white"/>
<path d="M495.2 126.933C492 128.4 489.333 133.333 489.333 137.467C489.333 138.933 491.067 142 493.2 144.133L497.067 148H551.867H606.533L610.133 144.8C615.333 140.4 615.333 132.933 610.133 128.533L606.533 125.333L552.267 125.467C517.867 125.467 496.933 126 495.2 126.933Z" fill="white"/>
<path d="M407.333 186C403.467 189.733 403.2 194.267 406 206C409.067 218 410 246.8 408 261.6C403.067 298.667 386.4 332.133 360.133 358.667C329.467 389.6 293.467 405.867 248.267 409.2C236.667 410.133 234.133 410.667 231.333 413.333C226.8 417.6 226.8 424.267 231.333 428.667C234.133 431.6 235.733 432 245.2 432C250.933 432 262.533 430.8 270.933 429.333C313.333 422 350.533 402.267 379.333 371.733C425.2 323.067 441.733 259.067 426 191.067C424.133 182.8 413.333 179.867 407.333 186Z" fill="white"/>
<path d="M538.667 185.333C532.667 191.333 534.267 200.267 542 203.333C547.733 205.867 599.867 206.133 606.533 203.867C612.267 201.867 615.333 195.867 613.467 190.4C610.8 182.8 610.267 182.8 574.4 182.667C543.2 182.667 541.2 182.8 538.667 185.333Z" fill="white"/>
<path d="M541.333 240.4C534.267 244 533.067 253.2 538.933 258.667C541.733 261.2 543.467 261.333 574.533 261.333C610 261.2 610.667 261.067 613.333 254C615.2 248.933 612.933 243.2 607.867 240.667C602.8 238 546.4 237.867 541.333 240.4Z" fill="white"/>
<path d="M245.867 263.2C243.2 264.4 241.2 266.667 240.267 269.2C238.533 274 239.2 276.667 243.067 280.933C245.6 283.733 246.933 284 261.6 284C276.667 284 277.6 283.867 280.667 280.667C285.2 276.267 285.2 269.6 280.533 265.2C277.467 262.267 275.867 262 263.6 261.6C254.133 261.467 248.667 261.867 245.867 263.2Z" fill="white"/>
<path d="M518.933 286C512 289.067 510.4 296.8 515.2 303.333C517.067 305.867 519.067 306 554.267 306.667L591.333 307.333L591.733 318.267L592.133 329.333H559.067C521.333 329.333 516.933 330 513.733 336.533C510.933 342.667 512.667 347.867 518.8 351.067C522.933 353.2 526.933 353.467 560.8 353.067L598.267 352.667L603.867 348.933C612.533 343.2 614.667 337.333 614.667 318.667C614.667 305.2 614.267 302.4 611.733 297.333C608.133 290.4 603.733 286.933 596.533 285.333C593.733 284.667 576 284.133 557.333 284.133C530.933 284.133 522.4 284.533 518.933 286Z" fill="white"/>
<path d="M174.933 344.933C172.933 347.067 151.867 382.667 128.267 424.133L85.1999 499.6L73.5999 500.4C67.1999 500.933 59.8666 501.867 57.1999 502.667C50.1333 504.667 40.7999 513.467 37.4666 521.333C34.6666 528 34.5333 528.8 34.9333 593.733C35.3333 653.467 35.5999 659.733 37.7333 663.6C40.9333 669.6 47.9999 676.4 54.1333 679.467C59.1999 681.867 63.8666 682 191.2 682.4C337.6 682.8 330.267 683.2 340.933 674C344 671.467 347.6 666.4 349.467 662.4C352.133 656.267 352.533 653.2 352.667 638.267V621.067L348.933 617.867C344 613.733 338.133 613.733 334 618C330.933 620.933 330.667 622.267 330.667 633.6C330.667 640.4 330 648.267 329.2 650.933C326.667 660.533 334.667 660 193.333 660C99.4666 660 65.7333 659.6 63.5999 658.4C57.3333 655.067 57.4666 656 57.3333 591.6V530.533L60.6666 527.333C63.5999 524.267 64.7999 524 77.3333 524C85.5999 524 92.3999 523.333 95.0666 522.133C98.9333 520.533 103.467 513.2 134.667 458.533L170 396.8L170.667 456C171.2 500.267 171.733 516.133 173.067 518.267C174 519.867 176.933 521.867 179.733 522.667C182.8 523.467 210.267 524 254.133 524H323.6L326.8 527.467C329.733 530.533 330 532.133 330.4 546.4C330.8 558.533 331.467 562.533 333.2 564.533C339.2 571.333 349.2 569.2 352 560.533C354.533 553.067 353.067 528.8 349.733 521.2C346.4 513.733 339.733 507.067 332 503.467C326.267 500.8 323.6 500.667 259.733 500.267L193.333 499.867V424V348.267L189.2 344.8C184 340.267 179.333 340.4 174.933 344.933Z" fill="white"/>
<path d="M119.733 559.333C113.333 562.933 112.533 572 118.133 576.933C121.467 580 121.733 580 165.467 580H209.467L212.667 576.667C217.2 572.267 217.2 565.6 212.533 561.2L209.067 558L166.267 557.733C130.133 557.467 122.8 557.733 119.733 559.333Z" fill="white"/>
<path d="M245.6 558.667C241.467 560.4 238.267 568.133 239.867 572.533C242.533 579.467 245.067 580 273.733 580C300 580 300.133 580 303.333 576.667C305.333 574.667 306.667 571.867 306.667 569.467C306.667 558.533 303.467 557.333 273.067 557.467C259.6 557.467 247.333 558 245.6 558.667Z" fill="white"/>
<path d="M97.8666 604.533C95.1999 605.733 93.1999 607.867 92.2666 610.533C90.5332 615.333 91.1999 618 95.0666 622.267C97.7332 625.333 97.9999 625.333 136.667 625.333C175.2 625.333 175.6 625.333 178.267 622.267C183.867 616.4 182.4 607.467 175.333 604.533C168.933 601.867 104 601.867 97.8666 604.533Z" fill="white"/>
<path d="M213.333 603.6C205.2 606.533 202.8 616.267 208.667 622C211.867 625.333 212 625.333 238.933 625.333C258.133 625.2 266.667 624.8 268.133 623.6C274.667 618.533 274.4 609.467 267.6 605.2C263.733 602.933 260.8 602.667 239.333 602.8C226.133 602.8 214.4 603.2 213.333 603.6Z" fill="white"/>
</g>
<defs>
<clipPath id="clip0_28_169">
<rect width="682.667" height="682.667" fill="white"/>
</clipPath>
</defs>
</svg>
