<svg width="683" height="683" viewBox="0 0 683 683" fill="none" xmlns="http://www.w3.org/2000/svg">
<path d="M330.667 26.6667V42.6667H341.333H352V26.6667V10.6667H341.333H330.667V26.6667Z" fill="white"/>
<path d="M250.667 38.0001L243.467 45.3334L254 56.0001C259.867 61.8667 265.2 66.6667 266 66.6667C267.733 66.6667 280 54.4001 280 52.5334C280 51.3334 259.867 30.6667 258.533 30.6667C258.267 30.6667 254.667 34.0001 250.667 38.0001Z" fill="white"/>
<path d="M412.267 41.7333L401.333 52.8L409.067 60.4L416.8 68L428 56.6667L439.2 45.3333L432 38C428 34 424.4 30.6667 424 30.6667C423.6 30.6667 418.4 35.6 412.267 41.7333Z" fill="white"/>
<path d="M296 76.5334C282.8 80 272 90.2667 268.4 102.533C260.667 129.467 280.267 161.733 323.6 192.933C341.067 205.467 341.6 205.467 359.067 192.933C402.8 161.467 422.4 128.933 414 102.133C406 76.8 373.867 66.9334 348.8 82L341.333 86.5334L333.867 82C322.267 74.9334 308.8 73.0667 296 76.5334ZM318.4 98C321.067 99.2 326.4 103.333 330.133 107.333C335.733 113.333 337.733 114.667 341.333 114.667C344.933 114.667 346.933 113.333 352.533 107.333C362.533 96.6667 372.8 93.4667 383.067 97.8667C397.2 103.867 398.133 119.867 385.333 138.533C379.333 147.467 359.733 166.533 348.933 173.867L341.333 179.067L333.733 173.867C322.933 166.533 303.333 147.467 297.333 138.533C290.8 129.067 287.467 118.933 288.4 111.867C290.133 99.3334 304.8 92.5334 318.4 98Z" fill="white"/>
<path d="M213.333 117.333V128H229.333H245.333V117.333V106.667H229.333H213.333V117.333Z" fill="white"/>
<path d="M437.333 117.333V128H453.333H469.333V117.333V106.667H453.333H437.333V117.333Z" fill="white"/>
<path d="M77.6 194C39.4666 202.267 10.6666 238.133 10.6666 277.333C10.6666 313.733 35.8666 347.867 70.6666 358.8C100.4 368.133 133.2 359.867 156.133 337.333C189.6 304.133 189.6 250.8 156.133 217.2C135.333 196.533 106 187.867 77.6 194ZM111.333 215.333C145.467 224.267 166.667 259.2 158 292.667C155.333 302.667 149.067 314.533 143.2 320.133L138.667 324.533V314.8C138.667 301.733 136.667 295.733 129.867 288.133L124.133 281.733L126 276.533C130 265.333 127.733 254.933 119.067 245.333C106.4 231.2 87.6 230.933 74 244.667C64.4 254.133 61.7333 264.667 66 276.533L67.8666 281.733L62.1333 288.133C55.3333 295.733 53.3333 301.733 53.3333 314.8V324.533L48.8 320.133C42.9333 314.533 36.6666 302.667 34 292.667C22.1333 246.933 65.6 203.467 111.333 215.333ZM103.333 259.333C110 265.867 105.333 277.333 96 277.333C90.5333 277.333 85.3333 272.133 85.3333 266.667C85.3333 261.2 90.5333 256 96 256C98.5333 256 101.333 257.2 103.333 259.333ZM114 302C117.2 305.067 117.333 306 117.333 321.333V337.333L113.733 338.933C111.6 339.867 103.733 340.533 96 340.533C88.2666 340.533 80.4 339.867 78.4 338.933L74.6666 337.333V321.333C74.6666 306 74.8 305.067 78 302C81.0666 298.8 82.1333 298.667 96 298.667C109.867 298.667 110.933 298.8 114 302Z" fill="white"/>
<path d="M631.333 206C580.533 217.867 550.933 242.267 543.2 278.667C537.6 305.2 548 359.333 559.333 362.133C567.867 364.267 600.933 355.467 620.667 345.867C661.2 326.267 678.133 291.333 670 244.533C666.533 224.533 660.8 207.867 656.267 204.533C653.067 202 646.667 202.4 631.333 206ZM614.4 246.133C599.067 268 588.4 284.8 579.2 301.333C574.933 309.067 570.133 317.6 568.533 320.4L565.6 325.6L564.133 317.067C560.933 298.4 562.8 280.933 569.467 268C575.733 255.867 585.733 246.533 600.533 239.067C607.6 235.467 624.4 229.2 625.067 230C625.333 230.133 620.533 237.467 614.4 246.133ZM649.2 250.267C652.133 269.6 650 286.133 643.067 298.933C638.4 307.333 625.467 319.467 615.333 324.933C606 329.733 586.933 336.667 585.867 335.6C584.933 334.667 594.4 316.933 607.067 296C620.133 274.533 645.6 238.4 646.8 239.6C647.333 240.133 648.4 244.933 649.2 250.267Z" fill="white"/>
<path d="M337.333 226.267C336.267 226.667 323.867 238.4 309.733 252.4L284.133 277.867L276.267 278.8C266.8 279.867 262.267 282.8 258.667 290.133C256.133 295.2 256 298.133 256 335.467V375.467L211.067 385.333C174.533 393.467 165.467 395.867 163.067 398.267L160 401.2V471.067V541.067L147.733 548C103.333 573.333 61.9999 609.733 30.9333 651.2C27.0666 656.267 23.9999 660.8 23.9999 661.333C23.9999 662.133 39.3333 673.333 40.3999 673.333C40.6666 673.333 45.1999 667.733 50.3999 660.933C55.4666 654.267 61.1999 647.2 63.0666 645.6L66.3999 642.4L91.8666 655.333C110.4 664.933 118 668.133 120.267 667.6C122 667.067 131.733 660.533 142 653.067C152.267 645.467 162.533 638 164.8 636.4L168.8 633.467L176.8 644C184.133 653.867 188.267 657.333 192.667 657.333C193.6 657.333 201.733 652.533 210.533 646.667L226.667 636H246.8H266.933L270.8 632.133C272.933 630 274.667 627.067 274.667 625.733C274.667 624.4 270.533 612.933 265.467 600.267L256.267 577.2L270.667 570C278.667 566 285.733 561.6 286.4 560.4C287.067 559.067 289.6 549.733 292.133 539.6C296.267 522.8 296.933 521.2 300 520.267C301.867 519.733 318.933 519.333 338 519.467C372 519.467 386 520.667 408 525.467L415.2 527.067L395.867 536.667L376.533 546.4L364.267 564.933C351.467 584.133 350.133 588.133 354.4 593.067C356.933 596.133 402.933 635.2 407.6 638.267C410.267 640 413.6 640 436.8 638.133L463.2 636L483.467 651.333C494.667 659.733 505.2 666.933 506.933 667.333C508.933 667.867 527.067 662.4 557.733 652.133L605.467 636.133L610.4 641.6C617.467 649.333 633.067 669.067 635.733 673.6C636.933 675.6 638.4 677.333 639.067 677.333C640.667 677.333 656 666.8 656 665.6C656 663.733 636.4 638.667 624.267 624.933C602.667 600.533 577.333 578.8 548.533 560.133C538.8 553.867 529.067 547.6 526.8 546.4L522.667 544.133V472.667V401.2L519.733 398.267C517.2 395.867 508.133 393.467 471.733 385.333L426.667 375.467V335.467C426.667 298.133 426.533 295.2 424 290.133C420.4 282.8 415.867 279.867 406.4 278.8L398.533 277.867L372.933 252.267C347.333 226.667 343.467 223.867 337.333 226.267ZM355.333 265.333L368.667 278.667H341.333H314L327.333 265.333C334.667 258 340.933 252 341.333 252C341.733 252 348 258 355.333 265.333ZM405.333 401.333C405.333 471.6 404.933 502.667 403.867 502.667C403.2 502.667 398.4 502 393.2 501.2L384 499.6V477.2C384 455.467 383.867 454.667 380.8 451.067L377.6 447.333H341.333H305.067L301.867 451.067C298.8 454.667 298.667 455.467 298.667 477.467V500H293.733C290.933 500.133 286.133 500.667 283.067 501.2L277.333 502.267V401.2V300H341.333H405.333V401.333ZM256 451.6V506L238.933 510.533C223.733 514.533 199.6 522.8 186.4 528.533L181.333 530.667V472.267V413.867L217.733 405.733C237.6 401.2 254.4 397.467 255.067 397.467C255.6 397.333 256 421.733 256 451.6ZM466.4 406.133L501.333 413.867V473.467V533.2L487.333 527.333C472.8 521.2 439.867 510.133 431.467 508.667L426.667 507.733V452.4C426.667 400.4 426.8 397.2 429.067 397.867C430.267 398.133 447.067 402 466.4 406.133ZM362.667 482.667V497.333H341.333H320V482.667V468H341.333H362.667V482.667ZM270.8 536.667C269.333 542.267 268 547.067 267.733 547.333C267.467 547.467 260 551.333 251.067 555.867C242.133 560.267 234.133 565.067 233.333 566.533C231.067 570.933 231.867 574.667 239.867 594.667L247.733 614L233.467 614.667L219.333 615.333L206.933 623.733C200 628.4 194.267 632 194.133 631.733C191.467 627.733 178.933 612.133 176.933 610.267C171.733 605.6 168.267 607.2 142.667 626C129.2 635.867 117.6 644 116.933 644C116.267 644 108 640 98.5333 635.067L81.4666 626L88.3999 618.933C114.4 592.267 164 560.4 204.667 544.267C228.533 534.8 272 522.8 273.067 525.333C273.333 526 272.267 531.067 270.8 536.667ZM476.4 545.867C508.8 559.333 541.467 578.8 567.333 600.133C582.133 612.267 588.667 618.4 588 619.067C587.6 619.333 570.133 625.333 549.067 632.4L510.8 645.067L490.533 629.867C467.2 612.4 472.133 613.733 438 616.533L416.8 618.4L402 606C394 599.2 384.933 591.6 382.133 589.067L376.933 584.533L384.133 573.733L391.333 562.933L419.333 549.067L447.333 535.067L456 538C460.8 539.6 470 543.2 476.4 545.867Z" fill="white"/>
<path d="M298.667 330.667V341.333H341.333H384V330.667V320H341.333H298.667V330.667Z" fill="white"/>
<path d="M298.667 373.333V384H341.333H384V373.333V362.667H341.333H298.667V373.333Z" fill="white"/>
<path d="M298.667 416V426.667H341.333H384V416V405.333H341.333H298.667V416Z" fill="white"/>
<path d="M192 437.333V448H218.667H245.333V437.333V426.667H218.667H192V437.333Z" fill="white"/>
<path d="M192 480V490.667H218.667H245.333V480V469.333H218.667H192V480Z" fill="white"/>
<path d="M437.333 437.333V448H464H490.667V437.333V426.667H464H437.333V437.333Z" fill="white"/>
<path d="M437.333 480V490.667H464H490.667V480V469.333H464H437.333V480Z" fill="white"/>
</svg>
