<svg width="683" height="683" viewBox="0 0 683 683" fill="none" xmlns="http://www.w3.org/2000/svg">
<g clip-path="url(#clip0_28_48)">
<path d="M80.6667 132.533C78.5333 133.467 75.3333 135.733 73.7333 137.467C70.1333 141.467 0 319.067 0 324.267C0 329.733 3.06667 336.4 7.06667 339.6C9.06667 341.067 24 347.6 40.2667 354.133C71.7333 366.533 77.8667 367.867 84.5333 363.6C87.8667 361.333 88.1333 361.6 107.6 373.733C118.4 380.533 129.867 387.867 132.933 389.867L138.4 393.6L135.867 399.067C132.133 407.6 132.4 420.4 136.8 429.067C142.8 441.067 155.6 449.333 168.133 449.333C172.8 449.333 173.067 449.6 174 454.267C176.933 470 193.6 484 209.467 484C212.533 484 213.2 484.8 214.533 489.867C218.267 504.533 230.933 515.733 245.6 517.2L253.867 518L254.933 523.067C258.667 540.933 275.2 553.333 293.333 551.6C304.8 550.533 311.867 546.4 322.4 534.267L326.667 529.2L336.933 536.667C343.067 541.067 350 544.933 354.4 546.133C376.267 552.533 399.867 538.533 404.533 516.4C405.467 512.4 405.733 512.267 409.733 513.467C421.733 516.933 437.467 512.8 446.667 503.867C453.067 497.733 458.667 486.667 458.667 480.267V476H466.4C478.267 476 486.133 472.667 494.8 464.133C501.733 457.067 506.667 447.733 506.667 441.467C506.667 439.733 508.533 439.333 517.733 439.333C526.533 439.333 529.867 438.667 534.4 436.267C551.333 427.333 560.267 408.267 555.6 390.933L553.6 383.733L568.533 374.133C593.2 358.133 590.933 359.067 596.667 362.667C605.067 367.867 609.6 366.933 642.4 354C658.667 347.6 673.467 341.2 675.2 339.867C679.2 336.8 682.667 329.467 682.667 324.267C682.667 319.467 657.067 254 653.733 250.4C648.8 244.933 637.333 249.2 637.333 256.667C637.333 258.4 643.067 274.4 650 292.133C657.067 309.867 662.533 324.533 662.4 324.667C661.2 325.6 609.733 345.333 608.667 345.333C607.467 345.333 596.267 317.733 543.2 183.067L538.933 172.267L566.267 161.467C581.333 155.467 593.867 150.8 594.133 150.933C594.267 151.2 600.533 166.8 608 185.733C621.867 220.667 623.733 224 630.4 224C634.133 224 640 218.4 640 214.8C640 210.533 612 140.933 608.933 137.467C605.333 133.6 598.667 130.667 593.467 130.667C587.467 130.667 529.333 154.133 524.933 158.4C521.2 162 518.4 169.467 518.933 174.667C519.333 177.467 517.6 178.4 502 184.133C478.933 192.533 475.333 192.933 449.467 189.2L428.133 186.133L424.667 189.333C420.4 193.333 420.267 199.067 424.4 203.067C426.8 205.6 430.8 206.667 449.2 209.333C476.133 213.2 483.333 212.533 509.067 202.8C526.667 196.267 526.8 196.267 528 199.067C528.533 200.667 541.467 233.2 556.533 271.333C571.6 309.333 583.733 340.667 583.6 340.667C583.467 340.8 573.867 347.067 562.267 354.533L541.067 368L531.6 361.067C526.267 357.333 508.267 344 491.467 331.6C474.667 319.2 459.067 308 456.8 306.667C453.2 304.667 451.067 304.533 439.067 305.733C406.933 308.933 374.667 297.467 349.2 273.6C331.2 256.8 324.667 257.2 301.067 276.4C282.667 291.333 263.467 300 248.533 300C240.267 300 234.533 298.133 226.933 293.067C217.733 286.667 218.8 284.533 238.933 270.133C260.533 254.667 279.733 238.667 304 215.867C314.667 205.867 325.2 196.8 327.333 195.733C334.533 192.133 339.6 192 360.8 195.333C387.333 199.467 388.533 199.467 391.867 195.2C395.2 191.067 395.467 187.067 392.667 183.067C390.267 179.733 390.267 179.733 362.267 175.333C343.467 172.4 338.533 172.133 332.267 173.333C321.333 175.333 312.667 180 301.867 189.867C296.667 194.667 292.133 198.267 291.733 198C291.467 197.6 286.4 196.133 280.533 194.667C267.6 191.467 247.867 189.733 213.733 188.533C188.267 187.6 188 187.6 175.733 182.667C164.4 178.267 163.333 177.6 163.733 174.533C164.267 170.133 160.533 161.067 156.8 157.467C152.8 153.6 94.4 130.667 88.9333 130.667C86.5333 130.8 82.9333 131.6 80.6667 132.533ZM116.533 161.333L143.733 172.133L139.467 183.067C87.2 315.6 75.2 345.333 74.1333 345.333C72.9333 345.333 21.3333 325.6 20.2667 324.667C19.8667 324.4 88.2667 150.667 88.8 150.667C89.0667 150.667 101.467 155.467 116.533 161.333ZM194 207.6C230.933 209.2 259.067 210.933 267.067 212.267C274.8 213.6 275.733 214 274.4 215.733C270.533 220.4 238.533 246 223.2 256.667C204.933 269.467 201.333 274.267 201.333 285.867C201.333 297.733 208.667 306.8 224.933 314.933C231.733 318.267 235.467 319.067 244.933 319.6C269.067 321.067 289.2 311.867 324.667 283.467L327.867 280.933L336.4 288.933C353.333 304.8 374.267 316.267 397.2 322.267C408 325.2 413.2 325.733 430.133 325.867L450.267 326L489.867 355.2C511.6 371.333 530.667 385.867 532.133 387.733C544.533 403.467 528.533 425.733 509.867 418.667C508 417.867 496 409.333 483.467 399.733C470.933 390.133 459.067 381.6 457.067 380.8C450 378.133 442.8 384.933 444.8 392.667C445.333 394.8 452.133 400.933 464.267 410.267C474.533 418.133 483.733 426.267 484.8 428.267C491.067 440.4 481.067 456 467.067 456C459.467 456 459.067 455.733 434.533 437.067C420.933 426.8 412.667 421.333 410.533 421.333C403.733 421.467 399.067 428.667 401.867 434.933C402.667 436.933 410.4 443.867 419.333 450.667C428.133 457.467 436 464.133 436.933 465.733C437.867 467.333 438.533 471.733 438.667 475.6C438.667 481.067 438 483.333 435.2 486.667C428.4 494.667 418.8 496.933 410.267 492.533C407.867 491.333 398.667 484.667 389.733 477.867C369.6 462.4 368.4 461.733 362.933 464.533C358.133 467.067 356.267 472 358.4 476.667C359.2 478.4 365.333 484.133 371.867 489.333C381.733 497.2 384 499.6 384.8 503.333C386.133 510.933 384.267 517.467 379.2 522.267C373.867 527.333 367.067 528.933 360.133 526.933C354.267 525.067 340.533 515.067 341.067 513.067C341.333 512.267 342.667 510 344.133 508.133C350.933 499.467 353.067 483.2 348.667 472.933C343.6 460.8 329.333 450.667 317.333 450.667H311.333L309.733 443.867C306.267 429.467 293.067 418 278.4 416.4L271.2 415.733L269.067 408.133C264.8 393.867 251.6 383.2 236.933 382.4C230.933 382 230.8 381.867 229.333 376.133C227.333 368.267 224.933 363.733 219.733 358.667C209.2 348.133 192.4 345.067 179.333 351.067C173.2 354 168.4 358.4 155.733 372.533L151.067 377.867L141.867 371.867C136.8 368.533 124.8 360.8 115.067 354.8L97.4667 343.733L100 337.6C102.533 331.2 152.667 204.267 154.667 199.067C155.867 196.267 155.867 196.267 168.933 201.6C180.133 206.267 183.733 207.067 194 207.6ZM203.733 371.333C205.867 373.067 208.4 376.4 209.333 378.667C212.4 386 210.267 390.4 194.533 408.8C186.533 418.267 178.533 426.667 176.933 427.6C172.933 429.867 166 429.733 161.333 427.333C156.4 424.8 153.333 418.933 153.333 412.133C153.333 407.333 154.533 405.333 163.733 394.4C169.333 387.6 177.067 378.8 180.8 375.067C186.933 368.533 188 368 193.6 368C198.267 368 200.8 368.8 203.733 371.333ZM246.267 407.333C250 411.6 251.2 416 250.133 421.733C249.067 427.2 223.067 458.267 216.533 461.867C210.667 464.933 204 463.867 198.267 458.667C194.4 455.333 194 454.133 194 447.6C194 440.4 194 440.4 206.8 425.2C222.4 406.933 225.2 404.133 230.133 402.8C235.733 401.333 242.933 403.333 246.267 407.333ZM286.267 441.867C291.733 447.867 292.4 456.133 287.733 462.133C281.2 470.667 261.067 493.467 258.267 495.333C254.667 497.867 246.267 497.867 241.467 495.333C237.333 493.333 233.333 486.133 233.333 481.067C233.333 479.333 235.067 475.2 237.2 471.867C242.667 463.6 264.133 439.733 268 437.6C273.6 434.667 281.333 436.533 286.267 441.867ZM326.133 475.2C332.133 481.2 332.667 489.467 327.6 496.8C321.067 506.133 299.6 529.6 296.533 530.8C284 535.467 270.533 523.6 274.667 511.333C276.267 506.533 302.533 474.933 307.067 472.4C308.667 471.467 312.667 470.8 315.867 470.667C320.667 470.667 322.4 471.467 326.133 475.2Z" fill="black"/>
</g>
<defs>
<clipPath id="clip0_28_48">
<rect width="682.667" height="682.667" fill="white"/>
</clipPath>
</defs>
</svg>
