<svg width="683" height="683" viewBox="0 0 683 683" fill="none" xmlns="http://www.w3.org/2000/svg">
<g clip-path="url(#clip0_28_51)">
<path d="M119.067 1.99998C115.733 4.26665 114.267 8.93332 111.867 24.6667C111.067 30.5333 109.867 36.2667 109.333 37.3333C108.667 38.4 105.467 40.4 102 41.6L95.8666 44L84.1333 35.3333C71.3333 26 66.6666 23.6 63.0666 24.9333C59.6 26 33.3333 52.1333 31.8666 55.6C30.2666 59.8667 31.8666 63.3333 41.8666 77.2L50.5333 89.2L48.2666 95.3333C47.0666 98.8 45.0666 102 44 102.667C42.9333 103.2 37.2 104.4 31.3333 105.2C25.4666 106.133 18.4 107.467 15.7333 108.133C7.46663 110.267 6.66663 112.667 6.66663 134.8C6.66663 145.6 7.06663 155.467 7.46663 156.667C8.93329 160.267 14.8 162.4 30.1333 164.667L44.9333 166.933L47.7333 173.733C49.3333 177.333 50.1333 181.067 49.7333 181.867C49.2 182.667 45.2 188.4 40.6666 194.667C36.1333 200.933 32 207.067 31.6 208.4C30 212.8 34.2666 219.2 47.6 232.267C65.3333 249.6 63.2 249.733 90.5333 230.133L95.8666 226.4L102.667 228.8C107.333 230.4 109.6 232.133 110 234C110.267 235.467 111.467 242.667 112.667 249.867C113.867 257.2 115.333 264.133 116.133 265.467C118.267 269.6 126.133 270.933 145.067 270.4C167.867 269.867 167.867 269.867 171.333 247.467L173.6 232L179.6 229.333C182.933 227.867 186.4 226.667 187.2 226.667C188 226.8 194.4 230.933 201.333 236C218.8 248.933 218.4 248.933 237.067 230.267C255.6 211.6 255.6 212.133 242.667 194.667C237.6 187.733 233.467 181.333 233.333 180.533C233.333 179.733 234.533 176.267 236 172.933L238.667 166.933L254.133 164.667C272.267 161.867 275.733 159.867 276.933 150.933L277.733 145.333H296.8H316V163.867C316 181.467 316.133 182.667 319.733 189.467C323.733 197.333 332.4 204.267 341.067 206.667C348 208.533 578.133 208.533 585.733 206.533C593.867 204.533 601.333 198.933 606 191.467C609.867 185.067 610 184.533 610.4 164.933L610.8 144.933L619.333 145.733C624 146.133 630.267 147.733 633.2 149.2C639.733 152.533 646.267 160.4 648.133 167.067C648.933 170.133 649.333 198.933 649.067 246.4L648.667 320.667L644.4 329.733C639.333 340.267 629.2 351.467 620.267 356.4C607.333 363.467 602.133 364 550.933 364H503.733L504.533 361.067C504.933 359.333 507.733 347.6 510.8 334.8C516 313.6 516.267 311.333 514.533 308.133C513.467 306.267 511.067 304 509.333 303.067C504.933 300.8 205.333 300.533 199.067 302.667C196.8 303.467 194.4 305.467 193.467 307.067C192.667 308.667 189.067 322 185.6 336.667L179.067 363.333L123.867 364L68.6666 364.667L59.8666 368.133C46.4 373.333 38.8 378.267 29.2 388C18.9333 398.4 11.8666 411.333 8.66663 425.733C6.79996 434 6.53329 444.267 6.93329 498.667L7.33329 562L11.4666 570.667C18.5333 585.6 27.3333 593.467 42.4 598.533C49.3333 600.933 53.8666 601.333 72.4 601.333H94.2666L94.9333 619.2C95.4666 635.333 95.8666 637.733 99.2 644.667C103.2 652.667 109.867 658.533 118.4 661.6C125.6 664.133 394.4 664.133 401.6 661.6C410.133 658.533 416.8 652.667 420.8 644.667C424.133 637.733 424.533 635.333 425.067 619.2L425.733 601.333H458.8H492V629.6C492 645.333 492.667 660.267 493.467 663.067C495.2 669.6 501.867 677.067 508.667 680.133C513.6 682.4 519.2 682.667 584 682.667C649.333 682.667 654.4 682.4 659.333 680.133C662.267 678.8 666.267 676 668.267 673.867C676.133 665.467 676 666.4 676 590.4C676 525.867 675.733 520.267 673.467 515.333C670.4 508.533 662.933 501.867 656.4 500.133C649.2 498.133 518.533 498.133 511.333 500.133C504.4 502.133 495.467 511.067 493.467 518C492.667 521.2 492 535.067 492 551.6V580H458.8H425.733L425.067 562.267C424.133 537.867 420 528.933 406.4 522.133L399.467 518.667H260H120.533L113.6 522.133C100 528.933 95.8666 537.867 94.9333 562.267L94.2666 580H74.1333C63.0666 580 51.7333 579.333 48.8 578.533C42 576.667 31.7333 566.4 29.6 559.2C28.4 555.2 28 537.333 28 495.067C28 431.467 28.4 427.733 35.6 414.4C40.5333 405.467 51.7333 395.333 62.2666 390.267L71.3333 386L122.4 385.6C150.4 385.333 173.333 385.733 173.333 386.267C173.333 386.8 170.667 398.4 167.333 411.733C163.733 426.267 161.733 437.6 162.133 439.467C164 447.067 155.067 446.667 324 446.667H479.6L482.267 443.733C484.267 441.6 486.8 433.6 490.667 418C493.6 405.467 496.667 393.067 497.467 390.267L498.8 385.333H549.067C605.733 385.333 610.933 384.667 627.867 376.4C641.733 369.6 655.067 356.267 661.733 342.667C670.933 324 670.8 324.933 670.4 239.867L670 163.333L665.733 154.4C656.8 135.6 638.267 124 617.067 124H610.667V107.2C610.667 97.8667 610 88 609.067 85.2C606.933 77.8667 599.333 69.4667 591.467 65.8667L584.667 62.6667H463.333C344.133 62.6667 341.867 62.8 336 65.4667C328 69.0667 322.933 74 319.2 82C316.4 88 316 90.5333 316 106.267V124H296.667C278.133 124 277.333 123.867 277.333 121.333C277.333 119.867 276.533 116.533 275.467 114C273.333 108.933 270.933 108 253.333 105.333C237.333 102.933 238.133 103.333 235.467 96L233.067 89.3333L238 82.2667C240.667 78.5333 244.933 72.4 247.467 68.8C254.8 58.5333 254.133 56.5333 239.067 40.9333C225.867 27.6 219.467 23.3333 215.067 24.9333C213.733 25.3333 207.6 29.4667 201.333 34C195.067 38.5333 189.333 42.5333 188.533 43.0667C187.733 43.4667 184 42.6667 180.4 41.0667L173.6 38.2667L171.333 23.4667C169.067 8.13332 166.933 2.26665 163.333 0.799985C162.133 0.399985 152.267 -1.52588e-05 141.467 -1.52588e-05C126 -1.52588e-05 121.333 0.399985 119.067 1.99998ZM149.733 24.2667C150.133 26 151.2 32.1333 152.133 38C154.267 51.8667 156 55.3333 162.267 57.3333C165.067 58.2667 171.867 61.0667 177.6 63.4667C189.6 68.8 189.333 68.9333 205.333 57.4667L216.533 49.3333L221.6 54.2667C224.4 56.9333 226.667 59.7333 226.667 60.4C226.667 60.9333 222.667 66.9333 217.867 73.7333C207.867 87.6 208 87.2 214.667 102.667C217.067 108.133 219.733 114.533 220.8 116.933C222.8 121.733 223.6 122.133 241.733 125.2L255.333 127.467L255.733 135.067C256 139.2 256 142.667 255.733 142.667C255.467 142.667 248.4 143.867 240 145.333C229.733 147.067 224.133 148.667 222.667 150.267C221.333 151.6 219.067 156.533 217.333 161.333C215.733 166.133 213.2 171.867 211.867 174.133C207.867 180.8 208.667 183.867 218 196.667C222.8 203.2 226.667 209.2 226.667 209.867C226.667 211.733 218.533 220 216.667 220C215.867 220 209.867 216.133 203.333 211.333C190.533 202 187.467 201.2 180.8 205.2C178.533 206.533 172.8 209.067 168 210.667C163.2 212.4 158.267 214.667 156.933 216C155.333 217.467 153.733 223.067 152 233.333C150.533 241.733 149.333 248.8 149.333 249.067C149.333 249.333 145.867 249.333 141.733 249.067L134.133 248.667L131.867 235.067C128.8 216.933 128.4 216.133 123.6 214.133C121.2 213.067 114.8 210.4 109.333 208C93.8666 201.333 94.2666 201.2 80.4 211.2C73.6 216 67.6 220 67.0666 220C66.4 220 63.6 217.733 60.9333 214.933L56 209.867L64.1333 198.667C75.6 182.667 75.4666 182.933 70.1333 170.933C67.7333 165.2 64.9333 158.4 64 155.6C62 149.333 58.5333 147.6 44.6666 145.467C26.8 142.667 28 143.467 28 134.8V127.2L42.9333 124.933C51.7333 123.6 58.6666 121.867 60 120.667C61.3333 119.467 63.7333 114.933 65.3333 110.533C66.9333 106.133 69.6 99.4667 71.3333 95.7333C75.2 87.4667 74.8 86.2667 63.7333 71.0667L55.6 59.7333L61.0666 54.4L66.4 48.9333L77.7333 57.0667C92.9333 68.1333 94.1333 68.5333 102.4 64.6667C106.133 62.9333 112.8 60.2667 117.2 58.6667C121.6 57.0667 126.133 54.6667 127.333 53.3333C128.533 52 130.267 45.0667 131.6 36.2667L133.867 21.3333H141.467C148.267 21.3333 149.067 21.6 149.733 24.2667ZM585.867 87.4667L589.333 91.0667V134.8V178.533L586.133 182.267L582.933 186H463.333H343.733L340.533 182.267L337.333 178.533V134.667V90.9333L341.467 87.4667L345.6 84H463.867H582.267L585.867 87.4667ZM490.933 323.333C491.467 323.867 473.733 398.533 467.867 420.267L466.533 425.333H326.667C228.533 425.333 186.667 424.933 186.667 423.867C186.667 423.2 192.133 400.267 198.667 373.2C205.333 346.133 210.667 323.6 210.667 323.333C210.667 322.4 490 322.533 490.933 323.333ZM652.533 522.133C654.4 524 654.667 532 654.667 590.667C654.667 649.333 654.4 657.333 652.533 659.2C650.667 661.067 642.667 661.333 584 661.333C525.333 661.333 517.333 661.067 515.467 659.2C513.6 657.333 513.333 649.333 513.333 590.667C513.333 532 513.6 524 515.467 522.133C517.333 520.267 525.333 520 584 520C642.667 520 650.667 520.267 652.533 522.133ZM399.333 543.2C401.067 544.933 402.8 548.4 403.333 550.8C403.733 553.333 404 573.067 403.733 594.8C403.333 638 403.467 637.333 395.067 640.933C388.667 643.467 131.333 643.467 124.933 640.933C116.533 637.333 116.667 638 116.267 594.8C116 573.067 116.267 553.333 116.667 550.8C117.2 548.4 118.933 544.933 120.667 543.2L123.867 540H260H396.133L399.333 543.2Z" fill="black"/>
<path d="M127.067 76.6667C96.6666 84.9333 77.6 113.733 82.2666 144C88.4 183.733 132 206.667 168 189.067C185.2 180.667 198.667 162.4 201.2 144C206.933 101.467 167.6 65.7333 127.067 76.6667ZM159.333 100.667C182.667 112 187.6 143.333 169.067 162.267C151.067 180.667 119.333 176 107.6 153.2C99.3333 137.067 101.867 120.667 114.533 108C127.2 95.4667 143.333 92.8 159.333 100.667Z" fill="black"/>
<path d="M363.867 127.867C359.067 132.667 358.933 137.6 363.333 142L366.533 145.333H415.867H465.2L467.867 141.867C470.933 137.867 471.467 132.4 468.933 129.2C465.2 124.267 462.4 124 414.667 124H367.733L363.867 127.867Z" fill="black"/>
<path d="M492 125.733C486.933 128.267 484.667 133.867 486.667 138.8C487.6 140.933 489.467 143.333 490.8 144C492.133 144.8 507.733 145.333 526.667 145.333H560.133L563.333 142C567.733 137.6 567.6 132.667 562.8 127.867L558.933 124H527.067C504.133 124 494.4 124.533 492 125.733Z" fill="black"/>
<path d="M227.333 367.333C221.333 373.2 224.133 382.667 232.267 384.667C234 385.067 251.467 385.333 271.067 385.067C306.933 384.667 306.933 384.667 309.467 381.467C312.933 377.2 312.667 371.2 308.667 367.333L305.467 364H268H230.533L227.333 367.333Z" fill="black"/>
<path d="M335.333 367.333C331.333 371.2 331.067 377.2 334.533 381.467L337.067 384.667H392.667H448.267L450.8 381.467C454.267 377.2 454 371.2 450 367.333L446.8 364H392.667H338.533L335.333 367.333Z" fill="black"/>
<path d="M613.733 556.4C612.267 557.2 603.867 566.667 595.333 577.333C586.8 588 579.2 597.2 578.533 597.867C577.867 598.667 572.933 594.933 566.133 588.267C556.533 578.8 554.4 577.333 550.267 577.333C543.6 577.333 539.467 581.2 539.467 587.2C539.467 591.6 540.933 593.467 555.467 608.133C572 624.933 575.333 627.2 580.8 625.867C585.067 624.8 627.733 572.533 628.8 566.933C630.267 559.6 620.267 552.533 613.733 556.4Z" fill="black"/>
<path d="M148.667 583.333C146.533 585.333 145.333 588.133 145.333 590.667C145.333 593.2 146.533 596 148.667 598L151.867 601.333H206H260.133L263.333 598C267.733 593.733 267.733 587.6 263.333 583.333L260.133 580H206H151.867L148.667 583.333Z" fill="black"/>
<path d="M290 583.333C287.867 585.333 286.667 588.133 286.667 590.667C286.667 593.2 287.867 596 290 598L293.2 601.333H330.667H368.133L371.333 598C373.467 596 374.667 593.2 374.667 590.667C374.667 588.133 373.467 585.333 371.333 583.333L368.133 580H330.667H293.2L290 583.333Z" fill="black"/>
</g>
<defs>
<clipPath id="clip0_28_51">
<rect width="682.667" height="682.667" fill="white"/>
</clipPath>
</defs>
</svg>
