<?xml version="1.0" standalone="no"?>
<!DOCTYPE svg PUBLIC "-//W3C//DTD SVG 20010904//EN"
 "http://www.w3.org/TR/2001/REC-SVG-20010904/DTD/svg10.dtd">
<svg version="1.0" xmlns="http://www.w3.org/2000/svg"
 width="512.000000pt" height="512.000000pt" viewBox="0 0 512.000000 512.000000"
 preserveAspectRatio="xMidYMid meet">

<g transform="translate(0.000000,512.000000) scale(0.100000,-0.100000)"
fill="#000000" stroke="none">
<path d="M148 4948 c-20 -5 -54 -25 -76 -44 -78 -66 -73 31 -70 -1374 3 -1251
3 -1255 24 -1295 11 -22 40 -53 63 -70 l43 -30 203 -3 204 -3 3 -512 c3 -506
3 -512 25 -553 23 -44 70 -88 112 -107 18 -9 191 -14 572 -17 l545 -5 -41
-140 -42 -140 -104 -6 c-126 -7 -176 -26 -227 -85 -49 -55 -62 -100 -62 -215
0 -109 18 -151 75 -175 52 -21 2018 -21 2070 0 57 24 75 66 75 175 0 115 -13
160 -62 215 -51 59 -101 78 -227 85 l-104 6 -13 45 c-7 25 -27 89 -43 142
l-29 98 359 0 359 0 0 -307 c0 -348 3 -361 76 -421 62 -51 92 -54 625 -50
l486 3 48 30 c36 22 57 45 77 84 l28 53 0 792 c0 521 -4 804 -11 829 -13 49
-63 105 -114 128 -36 17 -72 19 -357 19 l-317 0 -3 673 c-3 634 -4 674 -22
707 -26 49 -55 79 -98 101 -35 18 -63 19 -422 19 l-385 0 -3 603 -3 604 -30
49 c-20 31 -47 58 -75 74 l-45 25 -1525 2 c-971 1 -1538 -3 -1562 -9z m3071
-164 c20 -25 21 -39 21 -275 l0 -249 -690 0 c-484 0 -696 -3 -713 -11 -25 -11
-47 -47 -47 -75 0 -8 11 -26 25 -39 l24 -25 701 0 700 0 0 -893 c0 -792 -2
-895 -16 -915 l-15 -22 -1511 0 c-1392 0 -1513 1 -1530 17 -17 15 -18 57 -18
915 l0 898 700 0 c687 0 700 0 720 20 33 33 30 75 -6 108 l-25 22 -695 0 -694
0 0 255 c0 242 1 256 20 275 20 20 33 20 1524 20 l1505 0 20 -26z m938 -1364
c10 -20 12 -165 10 -670 l-2 -645 -126 -5 c-118 -5 -128 -7 -167 -34 -83 -57
-86 -68 -92 -346 l-5 -245 -1540 0 -1540 0 0 325 0 325 1281 5 c1097 4 1284 7
1300 19 10 8 34 29 52 45 61 57 62 67 62 693 l0 563 377 -2 377 -3 13 -25z
m797 -1492 c14 -20 16 -112 16 -799 l0 -778 -26 -20 c-26 -21 -36 -21 -498
-21 -411 0 -474 2 -494 16 l-22 15 0 786 c0 718 1 788 17 805 15 17 44 18 504
18 l488 0 15 -22z m-1176 -720 l-3 -113 -608 -5 c-588 -5 -609 -6 -623 -24
-20 -28 -17 -69 5 -97 19 -23 24 -24 189 -27 l169 -3 38 -127 c21 -70 40 -135
42 -144 5 -17 -26 -18 -557 -18 -531 0 -562 1 -557 18 2 9 21 74 42 144 l38
127 169 3 c165 3 170 4 189 27 25 30 24 76 -1 101 -20 20 -33 20 -794 20 -913
0 -819 -15 -824 134 l-4 96 1546 0 1547 0 -3 -112z m-438 -723 c40 -21 50 -43
50 -114 l0 -61 -960 0 -960 0 0 61 c0 70 10 93 48 113 41 23 1779 23 1822 1z"/>
<path d="M426 4589 c-33 -26 -36 -79 -6 -109 19 -19 33 -20 435 -20 402 0 416
1 435 20 30 30 27 83 -6 109 -26 20 -37 21 -429 21 -392 0 -403 -1 -429 -21z"/>
<path d="M2143 4600 c-72 -30 -45 -140 34 -140 36 0 73 38 73 75 0 49 -59 85
-107 65z"/>
<path d="M2513 4600 c-72 -30 -45 -140 34 -140 36 0 73 38 73 75 0 49 -59 85
-107 65z"/>
<path d="M2883 4600 c-70 -29 -45 -140 32 -140 38 0 75 37 75 75 0 49 -59 85
-107 65z"/>
<path d="M449 3853 c-61 -38 -59 -15 -59 -666 l0 -594 22 -28 c42 -54 54 -55
483 -55 438 0 448 1 485 62 19 32 20 49 20 626 l0 592 -34 38 -34 37 -429 2
c-383 3 -431 1 -454 -14z m801 -663 l0 -530 -355 0 -355 0 0 530 0 530 355 0
355 0 0 -530z"/>
<path d="M1715 3861 c-11 -5 -31 -21 -45 -36 -25 -26 -25 -28 -28 -235 -3
-233 1 -255 61 -287 30 -17 77 -18 617 -18 653 0 630 -2 664 70 15 30 17 64
14 240 l-3 205 -33 32 -32 33 -598 2 c-328 1 -606 -2 -617 -6z m1135 -286 l0
-145 -530 0 -530 0 0 145 0 145 530 0 530 0 0 -145z"/>
<path d="M1665 2995 c-32 -31 -33 -74 -2 -103 l23 -22 635 0 636 0 21 23 c29
31 28 72 -3 102 l-24 25 -631 0 -631 0 -24 -25z"/>
<path d="M1662 2637 c-27 -29 -28 -67 -3 -98 18 -22 27 -24 138 -27 109 -3
121 -2 146 18 34 27 37 80 7 110 -18 18 -33 20 -143 20 -116 0 -125 -1 -145
-23z"/>
<path d="M2251 2634 c-26 -33 -27 -65 -2 -95 l19 -24 347 0 347 0 19 24 c26
32 24 73 -4 99 -23 22 -28 22 -364 22 l-342 0 -20 -26z"/>
<path d="M4391 584 c-26 -33 -27 -65 -3 -93 44 -54 132 -24 132 45 0 71 -86
103 -129 48z"/>
</g>
</svg>
