<?xml version="1.0" standalone="no"?>
<!DOCTYPE svg PUBLIC "-//W3C//DTD SVG 20010904//EN"
 "http://www.w3.org/TR/2001/REC-SVG-20010904/DTD/svg10.dtd">
<svg version="1.0" xmlns="http://www.w3.org/2000/svg"
 width="512.000000pt" height="512.000000pt" viewBox="0 0 512.000000 512.000000"
 preserveAspectRatio="xMidYMid meet">

<g transform="translate(0.000000,512.000000) scale(0.100000,-0.100000)"
fill="#000000" stroke="none">
<path d="M893 5105 c-25 -17 -36 -52 -54 -170 -6 -44 -15 -87 -19 -95 -5 -8
-29 -23 -55 -32 l-46 -18 -88 65 c-96 70 -131 88 -158 78 -26 -8 -223 -204
-234 -230 -12 -32 0 -58 75 -162 l65 -90 -17 -46 c-9 -26 -24 -50 -32 -55 -8
-4 -51 -13 -95 -19 -44 -7 -97 -17 -117 -22 -62 -16 -68 -34 -68 -200 0 -81 3
-155 6 -164 11 -27 55 -43 170 -60 l111 -17 21 -51 c12 -27 18 -55 15 -61 -4
-6 -34 -49 -68 -96 -34 -47 -65 -93 -68 -103 -12 -33 20 -81 120 -179 133
-130 117 -131 322 16 l40 28 51 -18 c35 -12 52 -25 55 -39 2 -11 11 -65 20
-119 9 -55 20 -107 26 -117 16 -31 75 -41 217 -37 171 4 171 4 197 172 l17
116 45 20 c25 11 51 20 57 20 6 -1 54 -32 106 -70 131 -97 128 -97 268 43 139
140 139 136 42 267 -38 52 -69 100 -70 106 0 6 9 32 20 57 l20 45 116 17 c136
21 162 36 171 103 l6 42 143 0 144 0 0 -139 c0 -132 1 -141 28 -192 30 -59 95
-111 160 -129 52 -14 1778 -14 1835 1 61 15 117 57 152 113 29 48 30 52 33
199 l3 150 64 -6 c35 -3 82 -15 104 -26 49 -25 98 -84 112 -134 6 -23 9 -239
7 -595 l-3 -557 -32 -68 c-38 -79 -114 -163 -181 -200 -97 -53 -136 -57 -520
-57 l-354 0 6 22 c3 13 24 101 47 197 39 159 41 176 28 200 -8 14 -26 31 -39
38 -33 17 -2280 19 -2327 3 -17 -6 -35 -21 -42 -33 -6 -12 -33 -112 -59 -222
l-49 -200 -414 -5 -414 -5 -66 -26 c-101 -39 -158 -76 -230 -149 -77 -78 -130
-175 -154 -283 -14 -62 -16 -139 -13 -547 l3 -475 31 -65 c53 -112 119 -171
232 -209 52 -18 86 -21 225 -21 l164 0 5 -134 c4 -121 7 -139 32 -191 30 -60
80 -104 144 -127 54 -19 2070 -19 2124 0 64 23 114 67 144 127 25 52 28 70 32
191 l5 134 248 0 249 0 0 -212 c0 -118 5 -230 11 -251 13 -49 63 -105 114
-128 37 -17 79 -19 565 -19 490 0 528 2 565 19 22 10 52 31 67 47 59 63 58 56
58 626 0 484 -2 526 -19 563 -23 51 -79 101 -128 114 -54 15 -1034 15 -1088 0
-52 -15 -119 -82 -134 -134 -6 -24 -11 -128 -11 -252 l0 -213 -249 0 -248 0
-5 133 c-7 183 -38 250 -140 301 l-52 26 -1046 0 -1046 0 -52 -26 c-102 -51
-133 -118 -140 -301 l-5 -133 -151 0 c-83 0 -168 5 -190 11 -51 14 -128 91
-144 145 -9 30 -12 164 -12 481 0 477 3 505 57 605 37 67 121 143 200 181 l68
32 383 3 c210 2 382 -1 382 -5 0 -4 -20 -91 -45 -191 -27 -109 -42 -194 -39
-208 14 -57 -53 -54 1214 -54 l1167 0 20 22 c15 16 34 76 63 193 22 94 45 187
51 208 l10 37 377 0 c425 0 464 5 591 67 104 51 204 151 254 253 69 140 68
133 65 771 l-3 574 -32 67 c-67 141 -206 228 -365 228 l-48 0 0 126 c0 70 -5
144 -12 165 -16 55 -73 118 -132 145 l-51 24 -910 0 c-894 0 -911 -1 -955 -21
-60 -27 -98 -64 -126 -124 -21 -45 -24 -64 -24 -182 l0 -133 -145 0 c-139 0
-145 1 -145 20 0 11 -6 36 -14 55 -16 38 -34 45 -166 65 -120 18 -114 15 -134
70 l-18 50 37 53 c20 28 52 74 71 101 55 77 50 92 -63 209 -99 100 -147 132
-180 120 -10 -3 -56 -34 -103 -68 -47 -34 -90 -64 -96 -68 -6 -3 -34 3 -61 15
l-51 21 -17 111 c-17 115 -33 159 -60 170 -9 3 -83 6 -164 6 -116 0 -151 -3
-168 -15z m230 -167 c3 -13 11 -59 18 -103 16 -104 29 -130 76 -145 21 -7 72
-28 115 -46 90 -40 88 -41 208 45 l84 61 38 -37 c21 -20 38 -41 38 -46 0 -4
-30 -49 -66 -100 -75 -104 -74 -101 -24 -217 18 -41 38 -89 46 -107 15 -36 21
-39 157 -62 l102 -17 3 -57 c2 -31 2 -57 0 -57 -2 0 -55 -9 -118 -20 -77 -13
-119 -25 -130 -37 -10 -10 -27 -47 -40 -83 -12 -36 -31 -79 -41 -96 -30 -50
-24 -73 46 -169 36 -49 65 -94 65 -99 0 -14 -61 -76 -75 -76 -6 0 -51 29 -100
65 -96 70 -119 76 -169 46 -17 -10 -60 -29 -96 -41 -36 -13 -73 -30 -83 -40
-12 -11 -24 -53 -37 -130 -11 -63 -20 -116 -20 -118 0 -2 -26 -2 -57 0 l-57 3
-17 102 c-23 136 -26 142 -62 157 -18 8 -66 28 -107 46 -116 50 -113 51 -217
-24 -51 -36 -96 -66 -100 -66 -5 0 -26 17 -46 38 l-37 38 61 84 c86 120 85
118 45 208 -18 43 -39 94 -46 115 -15 47 -41 60 -145 76 -134 21 -125 15 -125
80 l0 57 112 17 c66 10 118 23 128 32 10 9 28 43 40 76 12 33 32 83 45 111 29
62 26 71 -57 185 l-61 85 41 40 40 41 85 -61 c114 -83 123 -86 185 -57 28 13
78 33 111 45 33 12 67 30 76 40 9 10 22 62 32 128 l17 112 57 0 c51 0 57 -2
62 -22z m3271 -474 l26 -27 0 -328 0 -328 -24 -28 -24 -28 -897 0 -897 0 -24
28 -24 28 0 329 0 328 31 26 31 26 887 0 888 0 27 -26z m-712 -1769 c4 -4
-129 -564 -173 -727 l-10 -38 -1049 0 c-736 0 -1050 3 -1050 11 0 5 41 177 90
380 50 203 90 372 90 374 0 7 2095 6 2102 0z m1212 -1491 c14 -14 16 -74 16
-514 0 -440 -2 -500 -16 -514 -14 -14 -74 -16 -514 -16 -440 0 -500 2 -514 16
-14 14 -16 74 -16 514 0 440 2 500 16 514 14 14 74 16 514 16 440 0 500 -2
514 -16z m-1899 -158 c13 -13 26 -39 30 -57 3 -19 5 -167 3 -330 -3 -324 -2
-319 -65 -346 -48 -19 -1978 -19 -2026 0 -63 27 -62 22 -65 346 -2 163 0 311
3 330 4 18 17 44 30 57 l24 24 1021 0 1021 0 24 -24z"/>
<path d="M953 4545 c-228 -62 -371 -278 -336 -505 46 -298 373 -470 643 -338
129 63 230 200 249 338 43 319 -252 587 -556 505z m242 -180 c175 -85 212
-320 73 -462 -135 -138 -373 -103 -461 68 -62 121 -43 244 52 339 95 94 216
114 336 55z"/>
<path d="M2729 4161 c-36 -36 -37 -73 -4 -106 l24 -25 370 0 370 0 20 26 c23
30 27 71 8 95 -28 37 -49 39 -407 39 l-352 0 -29 -29z"/>
<path d="M3690 4177 c-38 -19 -55 -61 -40 -98 7 -16 21 -34 31 -39 10 -6 127
-10 269 -10 l251 0 24 25 c33 33 32 70 -4 106 l-29 29 -239 0 c-172 0 -245 -4
-263 -13z"/>
<path d="M1705 2365 c-45 -44 -24 -115 37 -130 13 -3 144 -5 291 -3 269 3 269
3 288 27 26 32 24 77 -6 106 l-24 25 -281 0 -281 0 -24 -25z"/>
<path d="M2515 2365 c-30 -29 -32 -74 -6 -106 l19 -24 417 0 417 0 19 24 c26
32 24 77 -6 106 l-24 25 -406 0 -406 0 -24 -25z"/>
<path d="M4603 947 c-11 -6 -74 -77 -138 -157 -64 -80 -121 -149 -126 -154 -5
-6 -42 22 -93 72 -72 71 -88 82 -119 82 -50 0 -81 -29 -81 -74 0 -33 11 -47
120 -157 124 -126 149 -143 190 -133 32 8 352 400 360 442 11 55 -64 108 -113
79z"/>
<path d="M1115 745 c-16 -15 -25 -36 -25 -55 0 -19 9 -40 25 -55 l24 -25 406
0 406 0 24 25 c33 32 33 78 0 110 l-24 25 -406 0 -406 0 -24 -25z"/>
<path d="M2175 745 c-16 -15 -25 -36 -25 -55 0 -19 9 -40 25 -55 l24 -25 281
0 281 0 24 25 c16 15 25 36 25 55 0 19 -9 40 -25 55 l-24 25 -281 0 -281 0
-24 -25z"/>
</g>
</svg>
