<?xml version="1.0" standalone="no"?>
<!DOCTYPE svg PUBLIC "-//W3C//DTD SVG 20010904//EN"
 "http://www.w3.org/TR/2001/REC-SVG-20010904/DTD/svg10.dtd">
<svg version="1.0" xmlns="http://www.w3.org/2000/svg"
 width="512.000000pt" height="512.000000pt" viewBox="0 0 512.000000 512.000000"
 preserveAspectRatio="xMidYMid meet">

<g transform="translate(0.000000,512.000000) scale(0.100000,-0.100000)"
fill="#000000" stroke="none">
<path d="M2468 4993 c-98 -73 -335 -317 -410 -423 -228 -322 -349 -725 -336
-1115 l4 -126 -126 -91 c-310 -227 -307 -224 -339 -290 l-31 -61 0 -267 0
-266 29 -46 c48 -76 151 -109 234 -75 18 8 116 66 220 130 103 65 189 117 191
117 2 0 9 -21 15 -48 18 -75 31 -99 57 -111 15 -7 87 -11 184 -11 l160 0 0
-84 c0 -72 4 -91 28 -137 40 -76 100 -113 196 -117 62 -3 78 0 126 25 36 18
65 43 85 71 28 40 30 52 33 142 l4 99 175 3 c206 4 200 0 227 127 12 56 21 79
29 74 7 -4 94 -63 194 -130 100 -68 198 -130 217 -138 45 -19 97 -19 143 0 48
20 71 41 94 87 17 34 19 62 19 297 l0 259 -33 64 c-31 61 -38 67 -251 219
l-218 155 1 170 c2 190 -14 331 -55 488 -88 335 -250 607 -512 858 -140 133
-225 198 -262 198 -18 0 -51 -17 -92 -47z m236 -254 c283 -271 443 -564 513
-944 23 -127 23 -417 0 -545 -10 -52 -53 -248 -96 -435 l-78 -340 -126 -3
-127 -3 0 38 c-1 75 -59 160 -130 191 -52 22 -167 19 -216 -6 -74 -38 -124
-113 -124 -187 l0 -35 -125 0 c-121 0 -125 1 -130 23 -30 128 -140 613 -155
684 -99 473 18 971 318 1358 78 102 306 325 332 325 9 0 74 -55 144 -121z
m-894 -1826 c29 -131 55 -245 57 -254 3 -11 -57 -53 -214 -149 -120 -73 -221
-135 -225 -137 -4 -2 -17 1 -28 7 -19 10 -20 20 -20 238 0 198 2 232 18 260
11 20 76 75 182 152 90 66 167 120 170 120 3 0 30 -107 60 -237z m1727 117
c110 -79 174 -131 186 -152 15 -28 17 -62 17 -255 0 -212 -1 -223 -20 -233
-17 -9 -52 11 -246 141 -204 136 -225 153 -220 174 3 13 26 113 51 222 49 213
52 223 59 223 3 0 81 -54 173 -120z m-921 -484 c17 -13 19 -30 22 -191 4 -219
1 -228 -86 -223 -80 4 -83 12 -80 219 3 148 5 169 22 188 23 25 91 29 122 7z"/>
<path d="M2460 4245 c-111 -31 -211 -120 -252 -224 -17 -43 -22 -77 -23 -146
0 -82 3 -96 32 -156 39 -80 111 -150 191 -187 49 -23 70 -27 152 -27 87 0 101
3 161 32 80 40 150 111 187 191 36 78 38 208 3 296 -33 82 -127 175 -207 206
-77 28 -173 34 -244 15z m188 -161 c83 -34 131 -110 132 -207 1 -200 -245
-297 -381 -150 -43 46 -59 87 -59 153 0 93 48 168 130 204 46 20 131 20 178 0z"/>
<path d="M833 4855 c-11 -8 -63 -91 -114 -184 l-94 -169 -170 -92 c-93 -50
-178 -101 -188 -112 -22 -26 -22 -73 1 -96 10 -10 95 -59 188 -110 l169 -91
95 -177 c77 -143 101 -179 126 -191 59 -29 77 -9 184 188 l95 176 150 83 c222
123 240 140 215 199 -9 22 -51 50 -188 127 l-176 99 -91 162 c-49 89 -99 171
-109 182 -22 25 -63 27 -93 6z m117 -353 l62 -112 119 -67 c66 -37 119 -70
119 -73 0 -3 -53 -34 -118 -70 l-117 -66 -65 -116 c-36 -64 -68 -119 -71 -123
-4 -3 -35 46 -68 109 -34 63 -72 123 -85 133 -12 10 -68 43 -124 73 -56 29
-102 57 -102 61 0 4 52 35 115 69 125 67 126 68 205 213 30 53 57 94 61 90 4
-5 35 -59 69 -121z"/>
<path d="M4193 4848 c-12 -13 -61 -94 -109 -181 -98 -178 -76 -158 -301 -282
-154 -85 -178 -110 -155 -160 13 -28 39 -45 219 -144 72 -40 137 -79 145 -88
7 -9 53 -90 103 -182 101 -186 121 -206 179 -178 25 12 49 48 126 191 l95 177
169 91 c93 51 178 100 188 110 25 25 23 74 -5 101 -12 12 -97 62 -188 111
l-165 89 -93 169 c-52 93 -103 175 -114 183 -31 22 -70 18 -94 -7z m117 -333
c67 -125 72 -130 195 -195 63 -34 115 -65 115 -68 0 -4 -51 -35 -113 -69 -62
-34 -120 -70 -129 -80 -8 -10 -41 -67 -73 -126 -31 -60 -60 -105 -64 -102 -3
4 -35 59 -71 123 l-65 117 -117 65 c-65 36 -118 68 -118 71 0 3 52 34 116 70
64 35 122 73 129 84 7 11 38 66 70 123 65 118 53 119 125 -13z"/>
<path d="M2095 2185 c-24 -23 -25 -29 -25 -160 0 -131 1 -137 25 -160 13 -14
35 -25 49 -25 70 0 86 34 86 185 0 151 -16 185 -86 185 -14 0 -36 -11 -49 -25z"/>
<path d="M2932 2203 c-30 -12 -42 -61 -42 -178 0 -151 16 -185 86 -185 14 0
36 11 49 25 24 23 25 29 25 160 0 131 -1 137 -25 160 -23 24 -61 31 -93 18z"/>
<path d="M1395 1710 c-451 -3 -825 -8 -831 -12 -16 -11 -324 -692 -324 -716 0
-11 9 -30 19 -43 18 -22 28 -24 148 -29 l128 -5 5 -398 c5 -380 6 -399 24
-413 30 -21 3962 -21 3992 0 18 14 19 33 24 413 l5 398 128 5 c120 5 130 7
148 29 10 13 19 32 19 43 0 25 -306 687 -328 710 -16 16 -95 18 -1177 20 -638
2 -1529 1 -1980 -2z m691 -247 c-24 -54 -75 -165 -113 -248 l-69 -150 -733 -3
c-585 -2 -732 0 -728 10 3 7 53 120 112 251 l108 237 733 0 733 0 -43 -97z
m2480 -153 l114 -245 -50 -3 c-33 -2 -58 2 -72 12 -28 20 -82 21 -98 1 -11
-13 -128 -15 -939 -15 l-926 0 -89 198 c-49 108 -99 221 -112 250 l-24 52
1041 -2 1041 -3 114 -245z m-2396 -565 l0 -515 -740 0 -740 0 0 340 0 340 648
0 649 0 20 23 c11 12 51 91 89 175 37 83 69 152 71 152 2 0 3 -232 3 -515z
m235 360 c37 -82 76 -160 88 -172 l20 -23 959 0 958 0 0 -340 0 -340 -1050 0
-1050 0 0 517 c0 284 2 514 4 512 2 -2 34 -71 71 -154z"/>
</g>
</svg>
