<?xml version="1.0" standalone="no"?>
<!DOCTYPE svg PUBLIC "-//W3C//DTD SVG 20010904//EN"
 "http://www.w3.org/TR/2001/REC-SVG-20010904/DTD/svg10.dtd">
<svg version="1.0" xmlns="http://www.w3.org/2000/svg"
 width="512.000000pt" height="512.000000pt" viewBox="0 0 512.000000 512.000000"
 preserveAspectRatio="xMidYMid meet">

<g transform="translate(0.000000,512.000000) scale(0.100000,-0.100000)"
fill="#000000" stroke="none">
<path d="M1600 5109 c-430 -50 -806 -237 -1106 -552 -692 -728 -646 -1883 102
-2560 65 -58 80 -67 114 -67 46 0 80 35 80 84 0 26 -19 49 -123 152 -138 137
-231 260 -311 414 -479 919 6 2036 1004 2315 160 44 287 58 485 52 268 -8 448
-53 679 -171 384 -196 674 -532 806 -935 62 -190 74 -274 74 -511 0 -230 -12
-311 -68 -489 -157 -492 -545 -886 -1033 -1050 -157 -52 -272 -72 -457 -78
-155 -5 -170 -8 -194 -28 -38 -33 -36 -89 3 -123 l29 -25 181 6 c198 7 320 28
495 86 112 38 278 115 368 172 l64 41 262 -261 c253 -251 264 -261 301 -261
37 0 48 9 234 194 108 106 206 199 219 205 17 9 32 9 55 2 22 -8 194 -173 548
-528 285 -285 522 -528 529 -541 6 -13 9 -35 5 -51 -8 -36 -389 -417 -427
-426 -14 -4 -37 -1 -50 5 -12 7 -181 169 -373 361 -317 316 -354 349 -383 349
-47 0 -82 -38 -82 -87 0 -37 13 -51 367 -404 342 -340 372 -368 422 -384 62
-20 140 -16 192 10 47 23 456 431 481 479 29 56 34 132 13 197 -16 51 -49 86
-558 596 -369 370 -555 550 -588 567 -51 29 -123 37 -194 23 l-40 -8 -223 224
-224 224 41 66 c173 283 261 597 261 931 0 288 -58 539 -182 794 -143 293
-360 536 -643 719 -331 214 -766 316 -1155 272z m1787 -3131 c112 -112 203
-207 203 -213 0 -13 -222 -235 -235 -235 -11 0 -415 401 -415 411 0 10 224
236 235 238 5 0 101 -90 212 -201z"/>
<path d="M1680 4774 c-14 -2 -63 -9 -110 -15 -109 -15 -257 -59 -373 -111
-436 -196 -749 -599 -833 -1073 -23 -130 -23 -365 -1 -490 53 -290 185 -549
386 -756 87 -90 99 -99 133 -99 28 0 42 7 63 32 40 48 30 75 -70 180 -237 248
-358 548 -358 883 1 150 19 272 63 405 120 368 416 670 788 804 134 48 263 69
422 69 211 0 365 -34 559 -124 104 -48 131 -49 166 -7 21 25 25 38 21 61 -9
45 -23 57 -121 103 -187 88 -371 132 -579 139 -72 2 -142 2 -156 -1z"/>
<path d="M3720 4597 c-54 -27 -63 -94 -20 -137 19 -19 35 -20 438 -20 454 1
442 -1 463 58 14 41 -9 86 -52 101 -48 16 -796 15 -829 -2z"/>
<path d="M1720 4430 c-198 -27 -357 -166 -418 -364 -20 -67 -20 -215 0 -282
20 -65 53 -129 89 -175 16 -20 29 -39 29 -42 0 -3 -12 -8 -27 -12 -115 -29
-243 -176 -272 -313 -15 -72 -15 -387 1 -415 26 -50 87 -63 126 -27 30 28 31
39 34 245 3 199 11 226 79 294 66 66 62 66 414 69 279 3 325 1 363 -14 61 -23
111 -70 138 -129 23 -49 24 -56 24 -377 l0 -328 -309 0 -310 0 -27 -24 c-39
-33 -39 -89 0 -122 l27 -24 370 0 370 0 24 24 c13 13 27 39 30 59 4 19 5 196
3 393 -4 343 -5 362 -27 423 -41 117 -125 210 -228 253 -29 12 -53 26 -53 31
0 5 11 23 26 39 65 78 104 196 104 316 0 310 -271 545 -580 502z m144 -175
c101 -17 206 -107 245 -211 18 -47 22 -74 19 -134 -6 -135 -73 -234 -196 -292
-159 -76 -361 -6 -441 151 -67 130 -41 291 62 395 65 65 181 111 252 100 11
-1 38 -6 59 -9z"/>
<path d="M3714 4168 c-24 -11 -44 -48 -44 -79 0 -11 13 -34 29 -50 l29 -29
411 0 410 0 27 24 c39 33 39 89 0 122 l-27 24 -407 -1 c-258 0 -415 -4 -428
-11z"/>
<path d="M3055 3725 c-29 -28 -31 -62 -10 -150 23 -90 30 -306 15 -417 -37
-278 -162 -529 -359 -728 -230 -232 -500 -354 -839 -379 -87 -7 -106 -11 -127
-31 -34 -32 -34 -82 0 -115 21 -22 33 -25 104 -25 43 0 130 9 193 20 318 55
597 203 813 432 344 365 468 845 350 1355 -14 62 -95 84 -140 38z"/>
<path d="M4040 3730 c-45 -45 -33 -112 25 -135 43 -19 434 -21 484 -4 43 15
66 60 52 101 -20 57 -24 57 -293 58 -234 0 -249 -1 -268 -20z"/>
<path d="M4060 3317 c-53 -27 -62 -96 -18 -137 21 -19 34 -20 267 -20 266 1
271 2 291 55 14 38 -3 81 -41 100 -38 20 -461 21 -499 2z"/>
<path d="M1844 3146 c-20 -9 -35 -26 -42 -45 -13 -36 -8 -56 21 -88 19 -21 29
-23 139 -23 113 0 120 1 143 25 34 33 34 83 -1 116 -23 22 -35 24 -127 27 -71
1 -112 -2 -133 -12z"/>
<path d="M3892 2975 c-52 -23 -64 -81 -28 -130 14 -19 29 -20 293 -25 l278 -5
3 -82 3 -83 -248 0 c-283 0 -316 -5 -340 -54 -21 -46 -8 -85 38 -109 31 -16
61 -18 315 -15 l281 3 42 28 c65 43 81 87 81 227 0 101 -3 122 -22 160 -27 52
-60 78 -114 90 -21 5 -154 9 -294 9 -198 0 -262 -3 -288 -14z"/>
<path d="M1312 2533 c-15 -16 -173 -283 -350 -594 l-323 -566 -87 -6 c-48 -4
-103 -11 -123 -17 -53 -15 -123 -81 -148 -140 -21 -50 -22 -56 -19 -543 3
-448 5 -495 21 -524 24 -45 77 -96 123 -119 38 -18 73 -19 1028 -22 1098 -3
1043 -6 1123 63 23 19 50 57 64 87 20 46 23 69 24 181 l0 129 -28 24 c-37 31
-81 31 -112 -1 -23 -22 -25 -32 -25 -117 0 -51 -5 -110 -11 -130 -19 -72 41
-68 -1019 -68 -704 0 -957 3 -973 12 -47 25 -46 18 -47 501 l0 458 25 24 c22
23 31 25 125 25 62 0 113 5 133 14 29 12 63 67 297 477 l265 463 5 -444 c4
-332 8 -451 18 -467 7 -12 29 -27 50 -33 23 -6 229 -10 558 -10 l521 0 24 -26
c22 -23 24 -35 27 -142 3 -91 8 -121 21 -136 45 -51 120 -35 141 30 19 56 8
238 -17 295 -25 56 -75 106 -133 133 -43 20 -63 21 -542 24 l-498 3 0 569 0
568 -31 26 c-39 34 -74 33 -107 -1z"/>
<path d="M898 925 c-48 -27 -54 -95 -12 -132 25 -23 27 -23 355 -23 l330 0 24
25 c34 33 34 83 -1 116 l-26 24 -321 2 c-271 2 -326 0 -349 -12z"/>
<path d="M1842 930 c-31 -13 -55 -71 -43 -104 20 -52 39 -56 254 -56 197 0
198 0 222 25 15 15 25 36 25 54 0 82 -24 91 -252 90 -101 0 -193 -4 -206 -9z"/>
<path d="M734 586 c-20 -9 -35 -25 -42 -45 -13 -36 -8 -56 21 -88 20 -23 22
-23 312 -23 289 0 292 0 312 23 42 44 31 111 -22 133 -48 20 -535 20 -581 0z"/>
<path d="M1600 593 c-61 -22 -79 -95 -35 -138 24 -25 25 -25 227 -25 144 1
208 4 219 13 49 38 47 106 -4 138 -29 17 -51 19 -212 18 -99 0 -187 -3 -195
-6z"/>
</g>
</svg>
