<svg width="683" height="683" viewBox="0 0 683 683" fill="none" xmlns="http://www.w3.org/2000/svg">
<g clip-path="url(#clip0_28_92)">
<path d="M19.7333 22.9334C17.0666 23.6 12.5333 26.2667 9.59994 28.8C-0.800064 37.6 -0.133397 24.6667 0.266603 212C0.666603 378.8 0.666603 379.333 3.4666 384.667C4.93327 387.6 8.79994 391.733 11.8666 394L17.5999 398L44.6666 398.4L71.8666 398.8L72.2666 467.067C72.6666 534.533 72.6666 535.333 75.5999 540.8C78.6666 546.667 84.9333 552.533 90.5333 555.067C92.9333 556.267 116 556.933 166.8 557.333L239.467 558L234 576.667L228.4 595.333L214.533 596.133C197.733 597.067 191.067 599.6 184.267 607.467C177.733 614.8 176 620.8 176 636.133C176 650.667 178.4 656.267 186 659.467C192.933 662.267 455.067 662.267 462 659.467C469.6 656.267 472 650.667 472 636.133C472 620.8 470.267 614.8 463.733 607.467C456.933 599.6 450.267 597.067 433.467 596.133L419.6 595.333L417.867 589.333C416.933 586 414.267 577.467 412.133 570.4L408.267 557.333H456.133H504V598.267C504 644.667 504.4 646.4 514.133 654.4C522.4 661.2 526.4 661.6 597.467 661.067L662.267 660.667L668.667 656.667C673.467 653.733 676.267 650.667 678.933 645.467L682.667 638.4V532.8C682.667 463.333 682.133 425.6 681.2 422.267C679.467 415.733 672.8 408.267 666 405.2C661.2 402.933 656.4 402.667 618.4 402.667H576.133L575.733 312.933C575.333 228.4 575.2 223.067 572.8 218.667C569.333 212.133 565.467 208.133 559.733 205.2C555.067 202.8 551.333 202.667 503.467 202.667H452.133L451.733 122.267L451.333 41.7334L447.333 35.2C444.667 31.0667 441.067 27.4667 437.333 25.3334L431.333 22L228 21.7334C98.5333 21.6 22.9333 22.1334 19.7333 22.9334ZM429.2 44.8C431.867 48.1334 432 50 432 81.4667V114.667H340C275.467 114.667 247.2 115.067 244.933 116.133C241.6 117.6 238.667 122.4 238.667 126.133C238.667 127.2 240.133 129.6 242 131.333L245.2 134.667H338.667H432V253.733C432 359.333 431.733 373.067 429.867 375.733L427.867 378.667H226.4C40.7999 378.667 24.6666 378.533 22.3999 376.4C20.1333 374.4 19.9999 368.8 19.9999 254.4V134.667H113.333C204.933 134.667 206.667 134.667 209.333 132C213.733 127.6 213.333 122 208.533 117.6L205.2 114.667H112.533H19.9999V80.6667C19.9999 48.4 20.1333 46.5334 22.6666 44C25.3333 41.3334 27.0666 41.3334 225.867 41.3334H426.533L429.2 44.8ZM554.267 226.667C555.6 229.333 555.867 248.667 555.6 316L555.333 402L538.533 402.667C522.8 403.333 521.467 403.6 516.267 407.2C505.2 414.8 504.8 416.267 504 453.333L503.333 486H298H92.6666V442.667V399.333L263.467 398.667C409.733 398.133 434.667 397.733 436.8 396.133C438.133 395.067 441.333 392.267 443.733 390.133C451.867 382.533 452 381.2 452 297.733V222.667L502.267 222.933L552.533 223.333L554.267 226.667ZM660.533 425.6C662.4 428.267 662.667 440.533 662.667 532.133V635.867L659.2 638.533C655.733 641.333 654.4 641.333 592.8 641.333C538 641.333 529.6 641.067 526.933 639.2L524 637.2V532.4C524 436.667 524.133 427.333 526.267 425.067C528.267 422.8 532.133 422.667 593.467 422.667H658.533L660.533 425.6ZM503.733 521.6L503.333 536.667L422.267 537.333C343.867 538 341.067 538.133 339.2 540.533C336.533 544.267 336.933 549.733 339.867 553.467C342.4 556.533 343.067 556.667 365.067 557.067L387.6 557.467L392.667 574.4C395.467 583.733 398 592.4 398.267 593.6C398.933 595.867 394.8 596 324 596C253.2 596 249.067 595.867 249.733 593.6C250 592.4 252.533 583.733 255.333 574.4L260.4 557.467L282.933 557.067C304.933 556.667 305.6 556.533 308.133 553.467C311.467 549.467 311.333 543.333 308 540C305.333 537.333 303.6 537.333 202.133 537.333C80.3999 537.333 92.9333 539.333 92.2666 519.467L91.7333 506.667H297.867H504.133L503.733 521.6ZM445.333 618C450.667 620.8 452 623.733 452 633.2V641.333H324H196V633.2C196 623.867 197.333 620.8 202.4 618.133C207.867 615.067 439.6 615.067 445.333 618Z" fill="black"/>
<path d="M56.7999 70.8C52.3999 74.2667 51.9999 81.3333 55.9999 85.3333C58.5333 87.8667 60.3999 88 114 88C167.6 88 169.467 87.8667 172 85.3333C176 81.3333 175.6 74.2667 171.2 70.8C167.733 68.1333 166.267 68 114 68C61.7333 68 60.2666 68.1333 56.7999 70.8Z" fill="black"/>
<path d="M285.733 69.3333C276.133 73.3333 279.733 88 290.267 88C295.067 88 300 82.9333 300 78C300 71.4667 292.133 66.6667 285.733 69.3333Z" fill="black"/>
<path d="M335.067 69.3333C325.467 73.3333 329.067 88 339.6 88C344.4 88 349.333 82.9333 349.333 78C349.333 71.4667 341.467 66.6667 335.067 69.3333Z" fill="black"/>
<path d="M384.4 69.3333C375.067 73.2 378.4 88 388.667 88C393.733 88 398.667 83.0667 398.667 78C398.667 71.4667 390.8 66.6667 384.4 69.3333Z" fill="black"/>
<path d="M59.8666 168.933C51.7332 174 51.9999 170.933 51.9999 257.733V336.933L54.9332 340.667C60.5332 347.867 62.1332 348 119.333 348C177.733 348 179.067 347.867 184 339.733C186.533 335.467 186.667 333.2 186.667 256.267V177.333L182.133 172.267L177.6 167.333L120.4 167.067C69.3332 166.667 62.9332 166.933 59.8666 168.933ZM166.667 257.333V328H119.333H71.9999V257.333V186.667H119.333H166.667V257.333Z" fill="black"/>
<path d="M228.667 167.867C227.2 168.533 224.533 170.667 222.667 172.667C219.333 176.133 219.333 176.4 218.933 204C218.533 235.067 219.067 238 227.067 242.267C231.067 244.533 237.333 244.667 309.333 244.667C396.4 244.667 393.333 244.933 397.867 235.333C399.867 231.333 400.133 226.8 399.733 203.333L399.333 176L394.933 171.733L390.667 167.333L310.933 167.067C267.2 166.933 230.133 167.333 228.667 167.867ZM380 206V225.333H309.333H238.667V206V186.667H309.333H380V206Z" fill="black"/>
<path d="M222 283.333C217.733 287.467 217.6 293.2 221.733 297.067L224.8 300H309.467H394.267L397.067 296.933C400.933 292.8 400.8 287.333 396.667 283.333L393.467 280H309.333H225.2L222 283.333Z" fill="black"/>
<path d="M221.6 331.067C218 334.933 217.867 340 221.2 344.133C223.6 347.067 224.8 347.333 239.6 347.733C254.133 348.133 255.733 348 259.067 345.333C263.6 341.733 264 334.667 260 330.667C257.6 328.267 255.6 328 240.933 328C225.467 328 224.267 328.133 221.6 331.067Z" fill="black"/>
<path d="M300.133 331.467C296.667 335.867 296.533 340.133 299.867 344.133L302.4 347.333H348.667H394.933L397.467 344.133C400.933 339.867 400.667 334.4 396.933 330.933C393.867 328 393.2 328 348.4 328H302.8L300.133 331.467Z" fill="black"/>
<path d="M585.467 604.8C582 609.2 581.867 613.467 585.067 617.2C590.933 624.4 602.667 620.4 602.667 611.2C602.667 601.733 591.2 597.467 585.467 604.8Z" fill="black"/>
</g>
<defs>
<clipPath id="clip0_28_92">
<rect width="682.667" height="682.667" fill="white"/>
</clipPath>
</defs>
</svg>
